<?xml version="1.0" encoding="utf-8"?>
<!-- Generator: Adobe Illustrator 24.0.1, SVG Export Plug-In . SVG Version: 6.00 Build 0)  -->
<svg version="1.1" xmlns="http://www.w3.org/2000/svg" xmlns:xlink="http://www.w3.org/1999/xlink" x="0px" y="0px"
	 viewBox="0 0 170.08 60.74" style="enable-background:new 0 0 170.08 60.74;" xml:space="preserve">
<style type="text/css">
	.st0{fill:#36EE00;}
	.st1{fill:#CB0000;}
	.st2{fill:#DADADA;}
	.st3{fill:#EDEDED;}
	.st4{fill:#FFFFFF;}
	.st5{fill:#C7FF00;}
	.st6{fill:#FFFFB3;}
	.st7{fill:#FF0000;}
	.st8{fill:#FF955F;}
	.st9{fill:#F6F6F6;stroke:#EDEDED;stroke-width:1.4;stroke-miterlimit:10;}
	.st10{fill:#F6F6F6;stroke:#F6F6F6;stroke-width:0.75;stroke-miterlimit:10;}
	.st11{fill:#B2B2B2;stroke:#B2B2B2;stroke-width:0.9871;stroke-miterlimit:10;}
	.st12{fill:none;stroke:#CB0000;stroke-width:3.5915;stroke-miterlimit:10;}
	.st13{fill:#B2B2B2;stroke:#B2B2B2;stroke-width:0.3848;stroke-miterlimit:10;}
	.st14{fill:#EDEDED;stroke:#EDEDED;stroke-width:0.0589;stroke-miterlimit:10;}
	.st15{fill:#FFFFFF;stroke:#FFFFFF;stroke-width:0.0589;stroke-miterlimit:10;}
	.st16{fill:none;stroke:#36EE00;stroke-width:3.848;stroke-miterlimit:10;}
	.st17{fill:none;stroke:#A2FF28;stroke-width:2.355;stroke-miterlimit:10;}
	.st18{fill:none;stroke:#D9FF51;stroke-width:1.1775;stroke-miterlimit:10;}
	.st19{fill:none;stroke:#FF0F08;stroke-width:2.355;stroke-miterlimit:10;}
	.st20{fill:none;stroke:#FF6C2D;stroke-width:1.1775;stroke-miterlimit:10;}
	.st21{fill:none;stroke:#B2B2B2;stroke-width:3.848;stroke-miterlimit:10;}
	.st22{fill:#B2B2B2;stroke:#B2B2B2;stroke-width:0.5131;stroke-miterlimit:10;}
	.st23{fill:none;stroke:#EDEDED;stroke-width:2.355;stroke-miterlimit:10;}
	.st24{fill:#EDEDED;stroke:#EDEDED;stroke-width:0.5887;stroke-miterlimit:10;}
	.st25{fill:#EDEDED;stroke:#EDEDED;stroke-width:0.1472;stroke-miterlimit:10;}
	.st26{fill:none;stroke:#FFFFFF;stroke-width:1.1775;stroke-miterlimit:10;}
	.st27{fill:#FFFFFF;stroke:#FFFFFF;stroke-width:0.1472;stroke-miterlimit:10;}
	.st28{fill:#DADADA;stroke:#DADADA;stroke-width:0.9744;stroke-miterlimit:10;}
	.st29{fill:#DADADA;stroke:#DADADA;stroke-width:0.9871;stroke-miterlimit:10;}
	.st30{fill:#DADADA;stroke:#DADADA;stroke-width:0.3848;stroke-miterlimit:10;}
	.st31{fill:none;stroke:#DADADA;stroke-width:3.848;stroke-miterlimit:10;}
	.st32{fill:#DADADA;stroke:#DADADA;stroke-width:0.5131;stroke-miterlimit:10;}
	.st33{fill:#DADADA;stroke:#DADADA;stroke-width:0.4958;stroke-miterlimit:10;}
	.st34{fill:#DADADA;stroke:#DADADA;stroke-width:0.521;stroke-miterlimit:10;}
	.st35{fill:#CB0000;stroke:#CB0000;stroke-width:1.8957;stroke-miterlimit:10;}
	.st36{fill:#DADADA;stroke:#DADADA;stroke-width:0.1657;stroke-miterlimit:10;}
	.st37{fill:none;stroke:#36EE00;stroke-width:2.0311;stroke-miterlimit:10;}
	.st38{fill:none;stroke:#D9FF51;stroke-width:0.9746;stroke-miterlimit:10;}
	.st39{fill:none;stroke:#FF6C2D;stroke-width:0.9746;stroke-miterlimit:10;}
	.st40{fill:none;stroke:#DADADA;stroke-width:2.0311;stroke-miterlimit:10;}
	.st41{fill:none;stroke:#FFFFFF;stroke-width:0.9746;stroke-miterlimit:10;}
	.st42{fill:none;stroke:#CB0000;stroke-width:3.8272;stroke-miterlimit:10;}
	.st43{fill:#DADADA;stroke:#DADADA;stroke-width:0.4101;stroke-miterlimit:10;}
	.st44{fill:#EDEDED;stroke:#EDEDED;stroke-width:0.0627;stroke-miterlimit:10;}
	.st45{fill:#FFFFFF;stroke:#FFFFFF;stroke-width:0.0627;stroke-miterlimit:10;}
	.st46{fill:none;stroke:#36EE00;stroke-width:4.1006;stroke-miterlimit:10;}
	.st47{fill:none;stroke:#A2FF28;stroke-width:2.5096;stroke-miterlimit:10;}
	.st48{fill:none;stroke:#D9FF51;stroke-width:1.2548;stroke-miterlimit:10;}
	.st49{fill:none;stroke:#FF0F08;stroke-width:2.5095;stroke-miterlimit:10;}
	.st50{fill:none;stroke:#FF6C2D;stroke-width:1.2548;stroke-miterlimit:10;}
	.st51{fill:none;stroke:#DADADA;stroke-width:4.1006;stroke-miterlimit:10;}
	.st52{fill:#DADADA;stroke:#DADADA;stroke-width:0.5467;stroke-miterlimit:10;}
	.st53{fill:none;stroke:#EDEDED;stroke-width:2.5096;stroke-miterlimit:10;}
	.st54{fill:#EDEDED;stroke:#EDEDED;stroke-width:0.6274;stroke-miterlimit:10;}
	.st55{fill:#EDEDED;stroke:#EDEDED;stroke-width:0.1568;stroke-miterlimit:10;}
	.st56{fill:none;stroke:#FFFFFF;stroke-width:1.2548;stroke-miterlimit:10;}
	.st57{fill:#FFFFFF;stroke:#FFFFFF;stroke-width:0.1568;stroke-miterlimit:10;}
</style>
<g id="Capa_1">
	<g>
		<path class="st33" d="M83.23,59.03c-0.24-0.14-0.38-0.26-0.45-0.43c-0.08-0.18-0.06-0.4,0.03-0.58c0.42-0.81,0.42-2.44,0.42-4.82
			c0-1.53-0.21-3.75-0.37-6.68c-0.16-2.81-0.31-3.89-0.35-5.63l-0.07-2.82c0.03-0.64-0.03-2.19-0.13-3.2
			c-0.06-0.64-0.13-1.05-0.27-2.34c-0.13-1.24-0.4-1.93-0.4-2.41c0-0.94,1.06-1.41,3.19-1.41h0.62c1.49,0,2.79,0.44,3.89,1.33
			c0.88,0.75,1.63,1.84,2.24,3.26c0.41,0.97,0.77,2.31,1.08,4.02c0.17,1.5,0.25,2.68,0.25,3.54v1.29v1.89c-0.01,0.2,0,1.05,0,1.21
			c0,0.86-0.13,1.88-0.39,3.08c-0.26,1.19-0.64,2.41-1.14,3.64c-1.24,2.95-2.64,5.04-4.18,6.28c-0.91,0.7-1.86,1.05-2.86,1.05
			C83.79,59.28,83.63,59.27,83.23,59.03z M87.91,54.27c0.77-1.17,1.37-2.46,1.78-3.88c0.75-2.63,1.12-5.28,1.12-7.96
			c0-1.45-0.14-3.03-0.41-4.75c-0.3-1.66-0.95-3.16-1.95-4.51c-0.47-0.64-1.06-1.15-1.78-1.51c-0.72-0.36-1.53-0.54-2.44-0.54v0.04
			c0,2.41,0.17,6.06,0.5,10.94c0.33,4.85,0.5,8.53,0.5,11.02v3.82C86.24,56.33,87.13,55.43,87.91,54.27z"/>
		<path class="st34" d="M104.41,58.54l-0.07-0.21c-0.12-1.42-0.32-2.95-0.74-4.69c-0.42-1.74-1.04-3.85-1.85-6.32
			c-0.62-1.85-1.14-3.51-1.56-4.99v15.85c0,0.43-0.08,0.74-0.23,0.95c-0.15,0.2-0.46,0.3-0.91,0.3c-0.34,0-0.6-0.1-0.8-0.3
			c-0.2-0.2-0.29-0.46-0.29-0.78v-0.32l0.08-11.83c0.06-3.49,0.08-7.41,0.08-11.79v-4.95c0-0.32,0.07-0.54,0.21-0.66
			c0.14-0.12,0.43-0.18,0.88-0.18c0.7,0,1.35,0.13,1.94,0.38c0.59,0.26,1.09,0.61,1.52,1.07c0.87,0.94,1.43,2.07,1.68,3.38
			c0.11,0.54,0.17,1.15,0.17,1.85c0,0.4-0.04,0.84-0.11,1.33c-0.07,0.48-0.12,0.79-0.15,0.93c-0.06,0.27-0.18,0.67-0.38,1.21
			c-0.2,0.54-0.32,0.88-0.38,1.05l-0.51,1.13l-0.42,1.05c0.03,0.97,0.2,2.19,0.53,3.66c0.32,1.48,0.68,2.84,1.07,4.1
			c0.28,0.88,0.79,2.36,1.52,4.42l1.17,3.43l0.05,0.19c0,0.46-0.04,0.84-0.13,1.17c-0.08,0.43-0.38,0.64-0.88,0.64
			C105.38,59.6,104.92,59.27,104.41,58.54z M101.23,39.24c0.15-0.19,0.35-0.63,0.4-0.86c0.12-0.35,0.24-0.73,0.34-1.16
			c0.13-0.55,0.2-1.05,0.24-1.5c-0.01-0.12,0-0.76,0-0.78c0-0.78-0.15-1.68-0.46-2.7c-0.17-0.48-0.39-0.89-0.65-1.23
			c-0.27-0.34-0.54-0.52-0.82-0.54l-0.08,4.02c-0.08,1.8-0.13,3.19-0.13,4.18c0,0.94,0.01,1.56,0.04,1.85
			C100.44,40.21,100.79,39.78,101.23,39.24z"/>
		<path class="st34" d="M113.5,57.75c-1.1-1.47-1.87-3.28-2.32-5.43c-0.51-2.28-0.83-4.72-0.97-7.32c-0.14-2.36-0.21-4.92-0.21-7.68
			v-3.34c0.04-1.18-0.04-1.54-0.12-2.16c0,0-0.09-0.73-0.17-1.62c0-0.05,0-0.17,0.04-0.32c0.06-0.2,0.17-0.38,0.34-0.55
			c0.25-0.25,0.53-0.38,0.84-0.38c1.01,0,1.52,0.95,1.52,2.86c0,1.23,0.07,3.57,0.21,7c0.13,3.26,0.2,5.53,0.21,6.81
			c0,0.13,0.01,0.26,0.02,0.39c0.07,0.66,0.15,1.27,0.27,2.23c0.13,1.05,0.2,1.64,0.28,2.4c0.06,0.59,0.12,1.17,0.32,2.04
			c0.2,0.87,0.48,1.75,0.84,2.63c0.36,0.94,0.84,1.71,1.43,2.31c0.59,0.6,1.09,0.88,1.74,0.88c0.39,0,0.78-0.18,1.05-0.42
			c0.27-0.24,0.5-0.51,0.59-0.97c0.17-0.75,0.25-1.49,0.25-2.21v-7.84c0-0.99-0.02-3.05-0.21-4.57c-0.17-1.69-0.42-5.64-0.42-5.64
			c0-0.75-0.04-1.89-0.13-3.42c-0.11-1.37-0.17-2.52-0.17-3.46c0-0.29,0.16-0.55,0.48-0.76c0.32-0.21,0.68-0.32,1.07-0.32h0
			c0.61,0.16,1,1.43,0.9,2.28c-0.09,0.82-0.19,1.72-0.19,1.78c0,2.44,0.14,5.81,0.42,10.1c0.25,4.51,0.38,8,0.38,10.5
			c0,1.34-0.14,2.52-0.42,3.54c-0.17,0.62-0.4,1.11-0.7,1.49c-0.29,0.38-0.69,0.7-1.2,0.97c-0.48,0.27-1.09,0.4-1.85,0.4
			C115.88,59.92,114.51,59.2,113.5,57.75z"/>
		<path class="st34" d="M134.13,51.51c-1.97-6.46-3.66-12.4-5.1-17.82v13.19c0,1.13,0.11,3.04,0.34,5.75
			c0.2,2.95,0.29,4.85,0.29,5.71c0,0.24-0.15,0.45-0.46,0.62c-0.31,0.17-0.66,0.26-1.05,0.26c-0.59,0-0.76-0.35-0.81-0.73l0.01-1.08
			c0.06-0.86,0.08-1.42,0.08-1.69c0-1.42-0.08-3.67-0.25-6.76c-0.17-3.14-0.25-5.04-0.25-5.71v-5.15c0-0.83,0.05-2.06,0.13-3.7
			c0.06-1.42,0.04-1.67,0.09-2.72l0.06-1.51c0-1.34,0.33-1.73,0.95-1.73c0.36,0,0.83,0.59,1.39,1.77c0.93,1.93,2.11,5.39,3.54,10.38
			c0.81,2.9,1.77,6.62,2.86,11.18c-0.03-0.11,0.2,0.82,0.67,2.78l0.04,0.2c0-2.6,0.03-4.93,0.08-7l0.08-7V28.86
			c0.11-0.67,0.56-1.01,1.35-1.01c0.74,0,1.02,0.37,1.04,1.36c0,0.04,0,0.09-0.01,0.14c-0.03,0.24-0.14,1.09-0.14,1.48
			c0,1.64-0.04,4.1-0.13,7.4c-0.08,3.33-0.13,5.82-0.13,7.48v12.27c0,0.43-0.12,0.84-0.36,1.23c-0.24,0.39-0.53,0.58-0.86,0.58
			C137.02,59.8,135.87,57.04,134.13,51.51z"/>
		<path class="st34" d="M153.93,60.04C153.93,60.04,153.92,60.04,153.93,60.04c-0.28-0.05-0.5-0.25-0.55-0.52
			c-0.73-3.89-1.46-7.17-2.19-9.82c-0.76-2.76-1.71-5.36-2.86-7.8l-0.88,1.57c-0.25,0.46-0.39,0.86-0.42,1.21
			c-0.08,0.8-0.13,1.39-0.13,1.77c0,0.8,0.04,2.04,0.13,3.7c0.08,1.64,0.13,2.88,0.13,3.74v3.3c0,1.42-0.48,2.13-1.43,2.13
			c-0.81,0-1.22-0.75-1.22-2.25c0-1.18,0.08-2.99,0.25-5.43c0.2-2.25,0.29-4.05,0.29-5.39l0.04-3.46V38.6c0-1.47-0.1-3.02-0.29-4.63
			c-0.2-1.66-0.29-2.92-0.29-3.78c0-0.35,0.11-0.65,0.34-0.89c0.21-0.22,0.52-0.35,0.84-0.35c1.04,0,1.56,1.09,1.56,3.26l-0.17,8.25
			l0.8-1.97c0.93-2.25,1.88-4.48,2.86-6.68c0.56-1.21,1.07-2.16,1.52-2.86c0.48-0.72,0.86-1.09,1.14-1.09c0.31,0,0.58,0.1,0.82,0.3
			c0.24,0.2,0.36,0.45,0.36,0.74c0,0.27-0.76,1.93-2.27,4.99c-1.49,2.92-2.36,4.87-2.61,5.83v0.72c0.42,1.02,1.54,4.28,3.37,9.8
			c1.82,5.51,2.74,8.43,2.74,8.75s-0.13,0.59-0.4,0.8c-0.27,0.21-0.58,0.32-0.95,0.32C154.26,60.12,154.1,60.09,153.93,60.04z"/>
		<path class="st34" d="M159.32,59.56c-0.45-0.24-0.67-0.52-0.67-0.84c0-0.32,0.08-0.58,0.25-0.78c0.17-0.2,0.41-0.3,0.72-0.3
			c0.28,0,0.69,0.11,1.22,0.32c0.59,0.22,1.15,0.28,1.29,0.26c0.49-0.05,0.83-0.16,1.26-0.6c0.44-0.44,0.78-1.03,1.03-1.75
			c0.51-1.34,0.76-2.55,0.76-3.62c0-1.15-0.19-2.37-0.57-3.64c-0.38-1.27-0.89-2.51-1.54-3.72l-0.67-1.29
			c-0.7-1.34-1.24-2.4-1.62-3.18c-0.38-0.78-0.71-1.62-0.99-2.53c-0.42-1.29-0.63-2.53-0.63-3.74c0-0.97,0.18-1.88,0.53-2.74
			c0.35-0.86,0.88-1.58,1.58-2.17c0.7-0.64,1.57-0.97,2.61-0.97c0.51,0,1,0.14,1.47,0.42c0.21,0.13,0.47,0.28,0.63,0.44
			c0.31,0.31,0.32,0.81,0.03,1.14l0,0c-0.18,0.21-0.44,0.34-0.72,0.33c-0.25-0.01-0.5-0.08-0.71-0.17
			c-0.53-0.21-1.15-0.16-1.59,0.18c-0.11,0.08-0.21,0.18-0.31,0.29c-0.38,0.42-0.67,0.89-0.86,1.43c-0.17,0.51-0.25,1.02-0.25,1.53
			c0,1.02,0.15,2.06,0.44,3.12c0.29,1.06,0.68,2.06,1.16,3l2.95,5.63c0.48,0.97,0.86,2.05,1.14,3.26c0.28,1.21,0.42,2.41,0.42,3.62
			c0,1.77-0.45,3.43-1.35,4.99c-0.48,0.8-1.1,1.44-1.85,1.91c-0.76,0.47-1.6,0.7-2.53,0.7C160.92,60.08,160.05,59.91,159.32,59.56z"
			/>
	</g>
	<polygon class="st35" points="67.89,9.14 67.32,12.26 64.16,11.34 63.54,13.88 66.79,14.41 65.85,17.44 68.49,18.03 69.06,14.92 
		72.22,15.82 72.84,13.28 69.58,12.77 70.53,9.73 	"/>
	<path class="st36" d="M41.22,33.35c0,0-0.09,0.11-0.07,0.11c0.04,0.01,0.28,0.4,0.3,0.41c0.58,0.09,1.07-0.07,1.61-0.06
		c0.03-0.24,0.04-0.66,0.04-0.88c0-0.19-0.01-0.38-0.03-0.55c-0.42,0.25-0.72,0.38-0.93,0.49c-0.11,0.06-0.41,0.22-0.8,0.44
		C41.29,33.35,41.24,33.34,41.22,33.35z"/>
	<path class="st4" d="M41.65,33.5c0.01-0.06,0.01-0.13,0.01-0.21c0-0.1-0.01-0.18-0.03-0.26c0.42-0.17,0.58-0.38,1-0.55
		c0.01,0.15,0.01,0.31,0.01,0.47c0,0.24-0.01,0.48-0.02,0.7C42.21,33.59,42.07,33.56,41.65,33.5z"/>
	<g>
		<path class="st37" d="M50.59,17.49c1.12-1.95,2.72-3.6,4.67-4.82c2.54-1.59,5.15-3.19,7.83-4.78c3.18-1.89,6.32-3.7,9.41-5.43
			c0.83-0.47,1.91-0.4,2.61,0.24c0.01,0,0.01,0.01,0.02,0.01c1.32,1.2,1.95,1.9,3.54,4.31c1.9,2.88,2.42,3.61,2.91,5.44
			c0.01,0.03,0.01,0.05,0.02,0.08c0.21,0.88-0.19,1.79-0.98,2.28c-2.86,1.79-5.8,3.59-8.8,5.38c-2.85,1.71-5.68,3.36-8.48,4.97
			c-1.96,1.12-4.17,1.78-6.45,1.9c-0.34,0.02-0.19,0.01-0.53,0.03"/>
		<path class="st37" d="M41.25,26.84c-0.56,0.33-1.22,0.73-2.34,1.47c-0.26,0.17-2.35,1.43-3.16,1.93c-0.13,0.08-0.14,0.27,0,0.35
			c0.39,0.25,0.97,0.75,1.47,1.53c0.43,0.67,0.65,1.29,0.74,1.72c0.04,0.19,0.26,0.28,0.43,0.17c0.31-0.19,0.63-0.4,1.09-0.67
			c0.74-0.43,1.49-0.87,1.68-0.97c0.73-0.39,1.26-0.69,1.69-0.93c0.47-0.27,1.16-0.65,1.99-1.15"/>
	</g>
	<g>
		<path class="st38" d="M50.59,17.49c1.12-1.95,2.72-3.6,4.67-4.82c2.54-1.59,5.15-3.19,7.83-4.78c3.18-1.89,6.32-3.7,9.41-5.43
			c0.83-0.47,1.91-0.4,2.61,0.24c0.01,0,0.01,0.01,0.02,0.01c1.32,1.2,1.95,1.9,3.54,4.31c1.9,2.88,2.42,3.61,2.91,5.44
			c0.01,0.03,0.01,0.05,0.02,0.08c0.21,0.88-0.19,1.79-0.98,2.28c-2.86,1.79-5.8,3.59-8.8,5.38c-2.85,1.71-5.68,3.36-8.48,4.97
			c-1.96,1.12-4.17,1.78-6.45,1.9c-0.34,0.02-0.69,0.04-1.03,0.06"/>
		<path class="st38" d="M41.25,26.84c-0.56,0.33-1.22,0.73-2.34,1.47c-0.26,0.17-2.35,1.43-3.16,1.93c-0.13,0.08-0.14,0.27,0,0.35
			c0.39,0.25,0.97,0.75,1.47,1.53c0.43,0.67,0.65,1.29,0.74,1.72c0.04,0.19,0.26,0.28,0.43,0.17c0.31-0.19,0.63-0.4,1.09-0.67
			c0.74-0.43,1.49-0.87,1.68-0.97c0.73-0.39,1.26-0.69,1.69-0.93c0.47-0.27,1.16-0.65,1.99-1.15"/>
	</g>
	<polygon class="st39" points="67.89,9.14 67.32,12.26 64.16,11.34 63.54,13.88 66.79,14.41 65.85,17.44 68.49,18.03 69.06,14.92 
		72.22,15.82 72.84,13.28 69.58,12.77 70.53,9.73 	"/>
	<path class="st40" d="M42.13,33.67c-1,9.39-9.04,16.63-19.11,16.69C12.36,50.42,3.65,42.21,3.58,32.02s8.53-18.5,19.2-18.57
		c7.72-0.05,14.41,4.24,17.55,10.47"/>
	<path class="st40" d="M17.74,28.65c1.46-1.25,3.2-2.59,5.24-3.92c1.99-1.3,3.9-2.34,5.62-3.18"/>
	<path class="st40" d="M19.66,27.59c0.29,0.1,2.9,3.22,6.31,0.8c3.12-2.21,1.09-5.14,1.1-5.54"/>
	<path class="st40" d="M13.03,27.8c0.08-0.85,0.45-3.37,2.58-5.61c2.48-2.61,5.63-3.02,6.43-3.11"/>
	<line class="st40" x1="33.29" y1="19.15" x2="35.58" y2="18.37"/>
	<path class="st40" d="M30.16,30.35c0.34-0.01,3.51-0.09,5.53,2.34c1.63,1.96,1.83,4.77,0.51,7.09"/>
	<path class="st40" d="M58.03,37.44c-1.13-1.17-2.44-2.41-3.95-3.65c-1.01-0.84-1.43-1.3-2.39-1.97c-0.46-0.32-0.99-0.58-1.65-0.52
		c-0.09,0.01-0.25,0.05-0.33,0.09c-0.65,0.26-1.22,0.45-1.75,0.62c-0.53,0.16-1.01,0-1.33-0.11c-0.89-0.29-1.35-0.94-1.67-1.38
		c-0.4-0.56-0.78-1.08-0.73-1.81c0.01-0.08,0.1-1.26,0.84-1.56c1.04-0.42,1.96,1.46,3.92,1.44c0.53,0,1.15-0.26,2.39-0.77
		c1.33-0.54,1.64-0.65,2.24-0.8c1.47-0.37,1.46-0.41,3.33,0.29c0.72,0.27,1.86,1.05,1.98,1.14c4.04,2.83,7.66,4.88,11.7,7.71
		c0.39,0.31,1.88,1.54,2.25,3.68c0.31,1.75-0.3,3.12-0.55,3.61"/>
	<path class="st40" d="M40.3,26.31c-0.01-0.01-0.02-0.02-0.03-0.03c-0.11-0.22-0.4-0.89-0.19-1.72c0.22-0.9,0.88-1.39,1.1-1.54
		c0.03-0.02,0.04-0.05,0.04-0.09c-0.02-0.27-0.05-1.16,0.64-1.92c0.77-0.84,1.84-0.88,2.17-0.88c0.05,0,0.1-0.04,0.11-0.09
		c0.07-0.35,0.32-1.28,1.23-1.95c0.75-0.55,1.55-0.63,1.88-0.65c0.03,0,0.05-0.01,0.07-0.03c0.21-0.19,0.76-0.64,1.6-0.76
		c1.01-0.14,1.77,0.28,1.99,0.42c0.01,0.01,0.02,0.02,0.03,0.03c0.44,0.66,0.45,1.47,0.03,2.02c-0.45,0.61-0.68,0.74-1.58,0.72
		c-0.38-0.01-0.79,0.29-0.88,0.66c-0.05,0.21-0.13,0.43-0.36,0.76c-0.34,0.49-0.96,0.77-1.63,0.77c-0.44,0-0.79,0.37-0.83,0.82
		c-0.02,0.18-0.07,0.37-0.18,0.56c-0.29,0.5-0.84,0.8-1.5,0.82c-0.41,0.01-0.68,0.4-0.69,0.81c-0.01,0.34-0.13,0.67-0.29,0.93
		C42.59,26.7,41.32,26.98,40.3,26.31z"/>
	<g>
		<path class="st41" d="M42.15,33.5c-0.84,9.39-9.06,16.79-19.12,16.85C12.36,50.42,3.65,42.21,3.58,32.02s8.53-18.5,19.2-18.57
			c7.72-0.05,14.41,4.24,17.55,10.47"/>
		<path class="st41" d="M17.74,28.65c1.46-1.25,3.2-2.59,5.24-3.92c1.99-1.3,3.9-2.34,5.62-3.18"/>
		<path class="st41" d="M19.66,27.59c0.29,0.1,2.9,3.22,6.31,0.8c3.12-2.21,1.1-5.31,1.05-5.61"/>
		<path class="st41" d="M13.03,27.8c0.08-0.85,0.45-3.37,2.58-5.61c2.48-2.61,5.63-3.02,6.43-3.11"/>
		<line class="st41" x1="33.29" y1="19.15" x2="35.58" y2="18.37"/>
		<path class="st41" d="M30.16,30.35c0.34-0.01,3.51-0.09,5.53,2.34c1.63,1.96,1.83,4.77,0.51,7.09"/>
		<path class="st41" d="M58.03,37.44c-1.13-1.17-2.44-2.41-3.95-3.65c-1.01-0.84-1.43-1.3-2.39-1.97c-0.46-0.32-0.99-0.58-1.65-0.52
			c-0.09,0.01-0.25,0.05-0.33,0.09c-0.65,0.26-1.22,0.45-1.75,0.62c-0.53,0.16-1.01,0-1.33-0.11c-0.89-0.29-1.35-0.94-1.67-1.38
			c-0.4-0.56-0.78-1.08-0.73-1.81c0.01-0.08,0.1-1.26,0.84-1.56c1.04-0.42,1.96,1.46,3.92,1.44c0.53,0,1.15-0.26,2.39-0.77
			c1.33-0.54,1.65-0.62,2.24-0.8c1.44-0.45,1.76-0.34,3.33,0.29c0.66,0.26,1.86,1.05,1.98,1.14c4.04,2.83,7.66,4.88,11.7,7.71
			c0.39,0.31,1.88,1.54,2.25,3.68c0.31,1.75-0.3,3.12-0.55,3.61"/>
		<path class="st41" d="M40.28,26.3c-0.1-0.2-0.41-0.88-0.2-1.74c0.24-0.97,0.98-1.46,1.15-1.57c-0.02-0.16-0.12-1.15,0.63-1.98
			c0.87-0.96,2.13-0.88,2.27-0.87c0.04-0.24,0.23-1.3,1.25-2.04c0.79-0.58,1.62-0.64,1.92-0.65c0.18-0.17,0.74-0.66,1.63-0.79
			c1.04-0.14,1.81,0.31,2,0.43c0.43,0.64,0.44,1.45,0.04,2.04c-0.38,0.55-1.05,0.8-1.58,0.75c-0.49-0.05-0.6,0.14-0.6,0.14
			c-0.04,0.05-0.09,0.12-0.14,0.21c-0.35,0.53-0.35,0.8-0.5,1.05c-0.24,0.4-0.35,0.73-1.55,0.77c-0.49,0.01-0.85,0.41-0.92,0.9
			c-0.02,0.16-0.08,0.32-0.17,0.48c-0.23,0.41-0.63,0.66-1.12,0.75c-0.58,0.1-0.98,0.56-1.09,1.13c-0.04,0.25-0.14,0.48-0.26,0.68
			C42.59,26.71,41.3,26.99,40.28,26.3z"/>
	</g>
	<path class="st4" d="M83.57,58.95c-0.25-0.11-0.44-0.22-0.51-0.38c-0.08-0.18-0.07-0.3,0.02-0.48c0.41-0.81,0.42-2.48,0.42-4.85
		c0-1.53-0.21-3.72-0.38-6.65c-0.16-2.81-0.26-3.91-0.29-5.65l-0.08-2.78c0.03-0.64,0-2.2-0.1-3.21c-0.06-0.64-0.15-1.15-0.28-2.44
		c-0.13-1.24-0.28-1.82-0.28-2.3c0-0.94,0.45-1.27,2.54-1.27l1.1,0c1.46,0,2.51,0.52,3.6,1.4c0.87,0.75,1.56,1.91,2.15,3.33
		c0.41,0.96,0.65,2.1,0.95,3.82c0.16,1.5,0.21,2.51,0.21,3.37l0.02,1.48v1.67c-0.01,0.2-0.04,1.38-0.04,1.54
		c0,0.86-0.12,1.57-0.38,2.76c-0.26,1.19-0.63,2.4-1.12,3.63c-1.22,2.95-2.48,4.78-4,6.01c-0.93,0.7-1.44,1.04-2.43,1.15
		C84.18,59.17,83.99,59.14,83.57,58.95z M88.08,54.37c0.76-1.17,1.37-2.56,1.78-3.98c0.73-2.63,1.14-5.42,1.14-8.1
		c0-1.45-0.22-3.04-0.49-4.75c-0.3-1.66-0.83-3.15-1.81-4.49c-0.46-0.64-1.26-1.24-1.97-1.6c-0.71-0.36-1.7-0.44-2.59-0.44
		l-0.08,0.52c-0.01,0.04-0.01,0.08-0.01,0.12c0,2.41,0.09,5.84,0.48,10.57c0.4,4.84,0.49,8.46,0.49,10.95l0.07,4.17
		C86.09,56.7,87.33,55.53,88.08,54.37z"/>
	<path class="st4" d="M104.54,58.52l-0.07-0.21c-0.12-1.42-0.29-2.91-0.72-4.66c-0.42-1.74-1.09-3.98-1.9-6.45
		c-0.62-1.85-1.26-3.58-1.68-5.05l-0.24,15.11c0,0.43,0.01,1.59-0.14,1.79c-0.15,0.2-0.36,0.31-0.81,0.31
		c-0.34,0-0.43-0.07-0.62-0.27c-0.2-0.2-0.24-0.37-0.24-0.69v-0.93l0.21-11.12c0.06-3.49,0.06-7.37,0.06-11.74l-0.02-4.77
		c0-0.32-0.01-0.72,0.13-0.84c0.14-0.12,0.48-0.17,0.93-0.17c0.7,0,1.14,0.13,1.73,0.38c0.59,0.26,1.04,0.61,1.46,1.06
		c0.87,0.94,1.32,1.78,1.57,3.1c0.11,0.54,0.17,1.15,0.17,1.85c0,0.4,0.03,0.65-0.04,1.14c-0.07,0.48-0.15,1.01-0.18,1.14
		c-0.06,0.27-0.1,0.5-0.29,1.03c-0.2,0.54-0.38,1.01-0.43,1.17l-0.5,1.12l-0.53,1.08c0.03,0.97,0.27,2.22,0.59,3.7
		c0.32,1.48,0.68,2.85,1.08,4.11c0.28,0.88,0.78,2.42,1.51,4.48l1.17,3.4l0.05,0.19c0,0.46,0.06,0.71-0.02,1.03
		c-0.08,0.43-0.38,0.64-0.88,0.64C105.34,59.45,105.05,59.25,104.54,58.52z M101.41,39.35c0.15-0.19,0.35-0.63,0.4-0.86
		c0.12-0.35,0.24-0.73,0.34-1.16c0.13-0.55,0.21-1.1,0.25-1.55c-0.01-0.12,0-0.76,0-0.78c0-0.78-0.15-1.71-0.46-2.73
		c-0.17-0.48-0.36-0.97-0.63-1.31c-0.27-0.34-0.96-0.77-1.24-0.79l-0.1,4.24c-0.08,1.8-0.07,3.21-0.07,4.2
		c0,0.94,0.13,1.87,0.16,2.17C100.4,40.45,100.96,39.89,101.41,39.35z"/>
	<path class="st4" d="M113.69,57.67c-1.1-1.47-1.89-3.23-2.34-5.37c-0.51-2.28-0.8-4.65-0.94-7.25c-0.14-2.36-0.26-4.84-0.26-7.6
		l-0.01-3.25c0.04-1.18-0.08-1.69-0.16-2.32c0,0-0.07-0.5-0.15-1.39c0-0.05-0.05-0.3,0-0.44c0.06-0.2,0.17-0.38,0.34-0.55
		c0.25-0.25,0.54-0.42,0.84-0.38c0.97,0.13,1.32,0.78,1.32,2.69c0,1.23,0.07,3.57,0.21,7c0.13,3.26,0.17,5.49,0.18,6.77
		c0,0.13,0.01,0.26,0.02,0.39c0.07,0.66,0.13,1.28,0.24,2.23c0.13,1.05,0.22,1.65,0.3,2.41c0.06,0.59,0.12,1.19,0.31,2.07
		c0.2,0.87,0.54,1.79,0.91,2.68c0.36,0.94,0.89,1.74,1.48,2.35c0.59,0.6,1.08,0.91,1.73,0.91c0.39,0,0.91-0.13,1.18-0.37
		c0.27-0.24,0.55-0.56,0.63-1.01c0.17-0.75,0.25-1.52,0.25-2.25l-0.02-7.88c0-0.99,0.01-3.07-0.19-4.6
		c-0.17-1.69-0.44-5.64-0.44-5.64c0-0.75-0.03-1.89-0.12-3.42c-0.11-1.37-0.16-2.37-0.16-3.31c0-0.29,0.06-0.57,0.39-0.78
		c0.32-0.21,0.68-0.32,1.07-0.32h0c0.61,0.16,0.84,1.24,0.75,2.09c-0.09,0.82-0.15,1.74-0.15,1.79c0,2.44,0.13,5.85,0.41,10.14
		c0.25,4.51,0.37,8.02,0.37,10.52c0,1.34-0.15,2.44-0.43,3.46c-0.17,0.62-0.3,0.97-0.6,1.35c-0.29,0.38-0.69,0.7-1.2,0.97
		c-0.48,0.27-1.09,0.4-1.85,0.4C115.85,59.73,114.7,59.12,113.69,57.67z"/>
	<path class="st4" d="M134.27,51.51c-1.97-6.46-3.59-12.6-5.27-18l-0.14,12.43c0,1.13,0.17,4.04,0.4,6.75
		c0.2,2.95,0.27,4.65,0.27,5.51c0,0.24-0.09,0.47-0.4,0.64c-0.31,0.17-0.66,0.27-1.05,0.26c-0.48-0.01-0.56-0.24-0.61-0.63
		l0.01-1.08c0.06-0.86,0.08-1.42,0.08-1.69c0-1.42-0.06-3.56-0.23-6.65c-0.17-3.14-0.22-5.04-0.22-5.71v-5.15
		c0-0.83,0.04-2.14,0.11-3.78c0.06-1.42,0.04-1.67,0.09-2.72l0.06-1.51c0-1.34,0.18-1.54,0.8-1.54c0.36,0,0.8,0.66,1.36,1.84
		c0.89,2.14,1.94,5.15,3.43,10.15c0.86,2.88,1.72,6.58,2.89,11.15c-0.03-0.11,0.28,0.81,0.76,2.77l0.04,0.2
		c0.14-2.52,0.17-4.88,0.22-6.94L137,40.8l-0.06-11.87c0.11-0.67,0.44-1.02,1.22-0.93c0.74,0.09,0.91,0.23,0.92,1.22
		c0,0.04,0,0.09-0.01,0.14c-0.03,0.24-0.14,1.09-0.14,1.48c0,1.64-0.06,4.08-0.15,7.38c-0.08,3.33-0.07,5.84-0.07,7.5l-0.03,12.22
		c0,0.43-0.06,0.8-0.3,1.19c-0.24,0.39-0.45,0.51-0.79,0.51C137.04,59.65,136.01,57.03,134.27,51.51z"/>
	<path class="st4" d="M153.99,60.03C153.99,60.03,154,60.03,153.99,60.03c-0.28-0.05-0.49-0.23-0.54-0.49
		c-0.73-3.89-1.44-7.21-2.17-9.87c-0.76-2.76-1.7-5.42-2.94-7.85l-0.88,1.33c-0.25,0.46-0.55,1.09-0.58,1.43
		c-0.08,0.8-0.1,1.45-0.1,1.82c0,0.8,0.01,2.11,0.09,3.77c0.08,1.64,0.15,2.82,0.15,3.67l0,3.27c0,1.42-0.33,2.01-1.29,2.01
		c-0.81,0-1.08-0.55-1.08-2.05c0-1.18,0.14-2.88,0.31-5.32c0.2-2.25,0.26-4.1,0.26-5.44v-3.47l-0.01-4.14
		c0-1.47-0.06-3.08-0.26-4.69c-0.2-1.66-0.31-2.57-0.31-3.42c0-0.35-0.03-0.86,0.2-1.11c0.21-0.22,0.56-0.37,0.88-0.37
		c1.04,0,1.29,0.97,1.37,3.09l-0.05,8.31l0.92-2c0.93-2.25,1.85-4.45,2.83-6.65c0.56-1.21,1.07-2.16,1.52-2.85
		c0.48-0.72,0.75-1.01,1.03-1.01c0.31,0,0.58,0.1,0.82,0.3c0.24,0.2,0.32,0.45,0.32,0.75c0,0.27-0.77,1.71-2.29,4.77
		c-1.49,2.92-2.34,4.9-2.59,5.86l-0.02,0.78c0.42,1.02,1.57,4.32,3.4,9.83c1.82,5.51,2.71,8.4,2.71,8.72s-0.05,0.5-0.32,0.71
		c-0.27,0.21-0.45,0.3-0.85,0.34C154.36,60.06,154.16,60.08,153.99,60.03z"/>
	<path class="st4" d="M159.43,59.45c-0.45-0.24-0.66-0.35-0.66-0.67c0-0.32,0.08-0.58,0.25-0.78c0.17-0.2,0.41-0.16,0.72-0.16
		c0.28,0,0.56,0.05,1.1,0.26c0.59,0.22,1.15,0.28,1.29,0.26c0.49-0.05,0.92-0.17,1.36-0.61c0.44-0.44,0.84-1.07,1.09-1.79
		c0.51-1.34,0.81-2.64,0.81-3.72c0-1.15-0.27-2.49-0.65-3.77c-0.38-1.27-0.9-2.47-1.55-3.68l-0.69-1.36
		c-0.7-1.34-1.16-2.29-1.54-3.07c-0.38-0.78-0.71-1.62-0.99-2.53c-0.42-1.29-0.64-2.44-0.64-3.65c0-0.97,0.18-1.88,0.53-2.74
		c0.35-0.86,0.78-1.46,1.49-2.05c0.7-0.64,1.47-0.92,2.51-0.92c0.51,0,0.95,0.06,1.43,0.3c0.22,0.11,0.49,0.27,0.63,0.44
		c0.25,0.31,0.28,0.59,0,0.97l0,0c-0.18,0.21-0.33,0.26-0.61,0.25c-0.25-0.01-0.5-0.08-0.71-0.17c-0.53-0.21-1.15-0.16-1.59,0.18
		c-0.11,0.08-0.36,0.29-0.46,0.39c-0.38,0.42-0.67,0.89-0.86,1.43c-0.17,0.51-0.28,1.15-0.28,1.66c0,1.02,0.21,2.16,0.5,3.22
		c0.29,1.06,0.71,2.05,1.18,2.99l3.02,5.71c0.48,0.97,0.75,1.83,1.03,3.03c0.28,1.21,0.39,2.37,0.39,3.57
		c0,1.77-0.38,3.32-1.28,4.88c-0.48,0.8-1.05,1.45-1.81,1.92s-1.46,0.73-2.39,0.73C161.03,59.97,160.16,59.79,159.43,59.45z"/>
</g>
<g id="Capa_2">
</g>
</svg>
