<?xml version="1.0" encoding="utf-8"?>
<!-- Generator: Adobe Illustrator 24.0.1, SVG Export Plug-In . SVG Version: 6.00 Build 0)  -->
<svg version="1.1" xmlns="http://www.w3.org/2000/svg" xmlns:xlink="http://www.w3.org/1999/xlink" x="0px" y="0px"
	 viewBox="0 0 340.16 121.48" style="enable-background:new 0 0 340.16 121.48;" xml:space="preserve">
<style type="text/css">
	.st0{fill:#36EE00;}
	.st1{fill:#CB0000;}
	.st2{fill:#DADADA;}
	.st3{fill:#EDEDED;}
	.st4{fill:#FFFFFF;}
	.st5{fill:#C7FF00;}
	.st6{fill:#FFFFB3;}
	.st7{fill:#FF0000;}
	.st8{fill:#FF955F;}
	.st9{fill:#F6F6F6;stroke:#EDEDED;stroke-width:1.4;stroke-miterlimit:10;}
	.st10{fill:#F6F6F6;stroke:#F6F6F6;stroke-width:0.75;stroke-miterlimit:10;}
	.st11{fill:#B2B2B2;stroke:#B2B2B2;stroke-width:0.9871;stroke-miterlimit:10;}
	.st12{fill:none;stroke:#CB0000;stroke-width:3.5915;stroke-miterlimit:10;}
	.st13{fill:#B2B2B2;stroke:#B2B2B2;stroke-width:0.3848;stroke-miterlimit:10;}
	.st14{fill:#EDEDED;stroke:#EDEDED;stroke-width:0.0589;stroke-miterlimit:10;}
	.st15{fill:#FFFFFF;stroke:#FFFFFF;stroke-width:0.0589;stroke-miterlimit:10;}
	.st16{fill:none;stroke:#36EE00;stroke-width:3.848;stroke-miterlimit:10;}
	.st17{fill:none;stroke:#A2FF28;stroke-width:2.355;stroke-miterlimit:10;}
	.st18{fill:none;stroke:#D9FF51;stroke-width:1.1775;stroke-miterlimit:10;}
	.st19{fill:none;stroke:#FF0F08;stroke-width:2.355;stroke-miterlimit:10;}
	.st20{fill:none;stroke:#FF6C2D;stroke-width:1.1775;stroke-miterlimit:10;}
	.st21{fill:none;stroke:#B2B2B2;stroke-width:3.848;stroke-miterlimit:10;}
	.st22{fill:#B2B2B2;stroke:#B2B2B2;stroke-width:0.5131;stroke-miterlimit:10;}
	.st23{fill:none;stroke:#EDEDED;stroke-width:2.355;stroke-miterlimit:10;}
	.st24{fill:#EDEDED;stroke:#EDEDED;stroke-width:0.5887;stroke-miterlimit:10;}
	.st25{fill:#EDEDED;stroke:#EDEDED;stroke-width:0.1472;stroke-miterlimit:10;}
	.st26{fill:none;stroke:#FFFFFF;stroke-width:1.1775;stroke-miterlimit:10;}
	.st27{fill:#FFFFFF;stroke:#FFFFFF;stroke-width:0.1472;stroke-miterlimit:10;}
	.st28{fill:#DADADA;stroke:#DADADA;stroke-width:0.9744;stroke-miterlimit:10;}
	.st29{fill:#DADADA;stroke:#DADADA;stroke-width:0.9871;stroke-miterlimit:10;}
	.st30{fill:#DADADA;stroke:#DADADA;stroke-width:0.3848;stroke-miterlimit:10;}
	.st31{fill:none;stroke:#DADADA;stroke-width:3.848;stroke-miterlimit:10;}
	.st32{fill:#DADADA;stroke:#DADADA;stroke-width:0.5131;stroke-miterlimit:10;}
	.st33{fill:#DADADA;stroke:#DADADA;stroke-width:0.4958;stroke-miterlimit:10;}
	.st34{fill:#DADADA;stroke:#DADADA;stroke-width:0.521;stroke-miterlimit:10;}
	.st35{fill:#CB0000;stroke:#CB0000;stroke-width:1.8957;stroke-miterlimit:10;}
	.st36{fill:#DADADA;stroke:#DADADA;stroke-width:0.1657;stroke-miterlimit:10;}
	.st37{fill:none;stroke:#36EE00;stroke-width:2.0311;stroke-miterlimit:10;}
	.st38{fill:none;stroke:#D9FF51;stroke-width:0.9746;stroke-miterlimit:10;}
	.st39{fill:none;stroke:#FF6C2D;stroke-width:0.9746;stroke-miterlimit:10;}
	.st40{fill:none;stroke:#DADADA;stroke-width:2.0311;stroke-miterlimit:10;}
	.st41{fill:none;stroke:#FFFFFF;stroke-width:0.9746;stroke-miterlimit:10;}
	.st42{fill:none;stroke:#CB0000;stroke-width:3.8272;stroke-miterlimit:10;}
	.st43{fill:#DADADA;stroke:#DADADA;stroke-width:0.4101;stroke-miterlimit:10;}
	.st44{fill:#EDEDED;stroke:#EDEDED;stroke-width:0.0627;stroke-miterlimit:10;}
	.st45{fill:#FFFFFF;stroke:#FFFFFF;stroke-width:0.0627;stroke-miterlimit:10;}
	.st46{fill:none;stroke:#36EE00;stroke-width:4.1006;stroke-miterlimit:10;}
	.st47{fill:none;stroke:#A2FF28;stroke-width:2.5096;stroke-miterlimit:10;}
	.st48{fill:none;stroke:#D9FF51;stroke-width:1.2548;stroke-miterlimit:10;}
	.st49{fill:none;stroke:#FF0F08;stroke-width:2.5095;stroke-miterlimit:10;}
	.st50{fill:none;stroke:#FF6C2D;stroke-width:1.2548;stroke-miterlimit:10;}
	.st51{fill:none;stroke:#DADADA;stroke-width:4.1006;stroke-miterlimit:10;}
	.st52{fill:#DADADA;stroke:#DADADA;stroke-width:0.5467;stroke-miterlimit:10;}
	.st53{fill:none;stroke:#EDEDED;stroke-width:2.5096;stroke-miterlimit:10;}
	.st54{fill:#EDEDED;stroke:#EDEDED;stroke-width:0.6274;stroke-miterlimit:10;}
	.st55{fill:#EDEDED;stroke:#EDEDED;stroke-width:0.1568;stroke-miterlimit:10;}
	.st56{fill:none;stroke:#FFFFFF;stroke-width:1.2548;stroke-miterlimit:10;}
	.st57{fill:#FFFFFF;stroke:#FFFFFF;stroke-width:0.1568;stroke-miterlimit:10;}
</style>
<g id="Capa_1">
	<g>
		<path class="st28" d="M165.32,115.16c-0.44-0.28-0.7-0.51-0.83-0.83c-0.15-0.36-0.11-0.77,0.06-1.12
			c0.77-1.58,0.77-4.73,0.77-9.34c0-2.96-0.38-7.27-0.68-12.94c-0.29-5.45-0.58-7.55-0.63-10.92l-0.12-5.48
			c0.05-1.25-0.05-4.25-0.23-6.21c-0.12-1.25-0.23-2.03-0.49-4.54c-0.24-2.41-0.73-3.74-0.73-4.67c0-1.82,1.95-2.73,5.85-2.73h1.14
			c2.74,0,5.12,0.86,7.14,2.57c1.62,1.46,2.99,3.56,4.1,6.32c0.76,1.87,1.42,4.47,1.98,7.8c0.3,2.91,0.46,5.2,0.46,6.86v2.5v3.67
			c-0.02,0.39,0,2.03,0,2.34c0,1.66-0.24,3.65-0.72,5.97c-0.48,2.31-1.18,4.67-2.09,7.06c-2.28,5.72-4.84,9.77-7.67,12.17
			c-1.67,1.35-3.42,2.03-5.24,2.03C166.36,115.65,166.05,115.63,165.32,115.16z M173.91,105.94c1.42-2.26,2.51-4.77,3.27-7.52
			c1.37-5.09,2.05-10.24,2.05-15.44c0-2.81-0.25-5.87-0.76-9.2c-0.56-3.22-1.75-6.13-3.57-8.73c-0.86-1.25-1.95-2.22-3.27-2.92
			c-1.32-0.7-2.81-1.05-4.48-1.05v0.08c0,4.68,0.3,11.75,0.91,21.21c0.61,9.41,0.91,16.53,0.91,21.37v7.41
			C170.84,109.93,172.49,108.2,173.91,105.94z"/>
		<path class="st29" d="M204.37,114.22l-0.13-0.41c-0.22-2.75-0.59-5.71-1.37-9.09c-0.78-3.38-1.92-7.46-3.43-12.24
			c-1.14-3.59-2.11-6.81-2.89-9.67v30.72c0,0.83-0.14,1.44-0.43,1.83c-0.29,0.39-0.85,0.59-1.68,0.59c-0.62,0-1.12-0.2-1.48-0.59
			c-0.36-0.39-0.55-0.9-0.55-1.52v-0.62l0.16-22.93c0.1-6.76,0.16-14.37,0.16-22.85v-9.59c0-0.62,0.13-1.05,0.39-1.29
			c0.26-0.23,0.8-0.35,1.64-0.35c1.3,0,2.49,0.25,3.59,0.74c1.09,0.49,2.03,1.18,2.81,2.07c1.61,1.82,2.65,4,3.12,6.55
			c0.21,1.04,0.31,2.24,0.31,3.59c0,0.78-0.07,1.64-0.2,2.57c-0.13,0.94-0.22,1.53-0.27,1.79c-0.1,0.52-0.34,1.3-0.7,2.34
			c-0.36,1.04-0.6,1.72-0.7,2.03l-0.94,2.18l-0.78,2.03c0.05,1.87,0.38,4.24,0.98,7.1c0.6,2.86,1.26,5.51,1.99,7.95
			c0.52,1.72,1.45,4.58,2.81,8.58l2.17,6.65l0.09,0.37c0,0.88-0.08,1.64-0.23,2.26c-0.16,0.83-0.7,1.25-1.64,1.25
			C206.16,116.27,205.3,115.63,204.37,114.22z M198.48,76.8c0.29-0.36,0.65-1.22,0.74-1.68c0.23-0.67,0.45-1.42,0.64-2.24
			c0.24-1.06,0.37-2.04,0.45-2.9c-0.02-0.22-0.01-1.46-0.01-1.52c0-1.51-0.29-3.25-0.86-5.22c-0.31-0.94-0.72-1.73-1.21-2.38
			c-0.5-0.65-1-1-1.52-1.05l-0.16,7.8c-0.16,3.48-0.23,6.19-0.23,8.11c0,1.82,0.03,3.02,0.08,3.59
			C197.01,78.68,197.66,77.84,198.48,76.8z"/>
		<path class="st29" d="M221.19,112.68c-2.03-2.86-3.46-6.37-4.29-10.53c-0.94-4.42-1.53-9.15-1.79-14.19
			c-0.26-4.57-0.39-9.54-0.39-14.89v-6.47c0.07-2.29-0.08-2.98-0.22-4.19c0,0-0.17-1.41-0.32-3.14c-0.01-0.1,0-0.33,0.08-0.61
			c0.1-0.38,0.31-0.74,0.62-1.07c0.47-0.49,0.99-0.74,1.56-0.74c1.87,0,2.81,1.85,2.81,5.54c0,2.39,0.13,6.91,0.39,13.57
			c0.25,6.32,0.38,10.72,0.39,13.19c0,0.25,0.01,0.5,0.03,0.75c0.12,1.29,0.29,2.46,0.5,4.31c0.23,2.03,0.38,3.18,0.51,4.65
			c0.11,1.14,0.23,2.27,0.59,3.96c0.36,1.69,0.88,3.39,1.56,5.11c0.67,1.82,1.56,3.31,2.65,4.48c1.09,1.17,2.02,1.71,3.22,1.71
			c0.73,0,1.44-0.35,1.94-0.82c0.49-0.47,0.93-0.99,1.08-1.87c0.31-1.46,0.47-2.89,0.47-4.29V91.94c0-1.92-0.03-5.9-0.39-8.87
			c-0.31-3.28-0.78-10.94-0.78-10.94c0-1.46-0.08-3.67-0.23-6.63c-0.21-2.65-0.31-4.89-0.31-6.71c0-0.57,0.3-1.06,0.9-1.48
			c0.6-0.42,1.26-0.62,1.99-0.62v0c1.13,0.31,1.85,2.77,1.67,4.42c-0.17,1.59-0.35,3.34-0.35,3.45c0,4.73,0.26,11.26,0.78,19.57
			c0.47,8.73,0.7,15.52,0.7,20.35c0,2.6-0.26,4.89-0.78,6.86c-0.31,1.2-0.74,2.16-1.29,2.89c-0.55,0.73-1.29,1.35-2.22,1.87
			c-0.88,0.52-2.03,0.78-3.43,0.78C225.61,116.89,223.06,115.49,221.19,112.68z"/>
		<path class="st29" d="M259.4,100.59c-3.64-12.53-6.78-24.04-9.44-34.55v25.58c0,2.18,0.21,5.9,0.62,11.15
			c0.36,5.72,0.55,9.41,0.55,11.07c0,0.47-0.29,0.87-0.86,1.21c-0.57,0.34-1.22,0.51-1.95,0.51c-1.09,0-1.41-0.67-1.51-1.42
			l0.03-2.09c0.1-1.66,0.16-2.76,0.16-3.28c0-2.76-0.16-7.12-0.47-13.1c-0.31-6.08-0.47-9.77-0.47-11.07v-9.98
			c0-1.61,0.1-4,0.23-7.17c0.12-2.76,0.08-3.24,0.17-5.27l0.11-2.92c0-2.6,0.61-3.36,1.75-3.36c0.67,0,1.53,1.14,2.57,3.43
			c1.71,3.74,3.9,10.45,6.55,20.12c1.51,5.61,3.28,12.84,5.3,21.68c-0.05-0.21,0.36,1.59,1.25,5.38l0.08,0.39
			c0-5.04,0.05-9.57,0.16-13.57l0.16-13.57V56.69c0.21-1.3,1.04-1.95,2.49-1.95c1.37,0,1.89,0.71,1.92,2.64c0,0.09,0,0.18-0.02,0.26
			c-0.06,0.47-0.26,2.12-0.26,2.87c0,3.17-0.08,7.95-0.23,14.35c-0.16,6.45-0.23,11.28-0.23,14.51v23.78c0,0.83-0.22,1.63-0.66,2.38
			c-0.44,0.75-0.97,1.13-1.6,1.13C264.75,116.66,262.62,111.31,259.4,100.59z"/>
		<path class="st29" d="M296.05,117.13C296.05,117.13,296.04,117.13,296.05,117.13c-0.52-0.1-0.93-0.49-1.02-1
			c-1.35-7.55-2.7-13.89-4.05-19.04c-1.4-5.35-3.17-10.4-5.3-15.13L284.04,85c-0.47,0.88-0.73,1.66-0.78,2.34
			c-0.16,1.56-0.23,2.7-0.23,3.43c0,1.56,0.08,3.95,0.23,7.17c0.16,3.17,0.23,5.59,0.23,7.25v6.39c0,2.76-0.88,4.13-2.65,4.13
			c-1.51,0-2.26-1.45-2.26-4.37c0-2.29,0.16-5.8,0.47-10.53c0.36-4.37,0.55-7.85,0.55-10.45l0.08-6.71v-8.11
			c0-2.86-0.18-5.85-0.55-8.97c-0.36-3.22-0.55-5.67-0.55-7.33c0-0.68,0.21-1.26,0.64-1.73c0.39-0.43,0.96-0.69,1.55-0.69
			c1.92,0,2.88,2.11,2.88,6.32l-0.31,15.99l1.48-3.82c1.72-4.37,3.48-8.68,5.3-12.94c1.04-2.34,1.98-4.18,2.81-5.54
			c0.88-1.4,1.59-2.11,2.11-2.11c0.57,0,1.08,0.2,1.52,0.58c0.44,0.39,0.66,0.87,0.66,1.44c0,0.52-1.4,3.74-4.21,9.67
			c-2.76,5.67-4.37,9.44-4.83,11.31v1.4c0.78,1.98,2.86,8.31,6.24,18.99c3.38,10.68,5.07,16.34,5.07,16.96s-0.25,1.14-0.74,1.56
			c-0.49,0.42-1.08,0.62-1.75,0.62C296.67,117.28,296.36,117.23,296.05,117.13z"/>
		<path class="st29" d="M306.03,116.19c-0.83-0.47-1.25-1.01-1.25-1.64c0-0.62,0.16-1.13,0.47-1.52c0.31-0.39,0.75-0.59,1.33-0.59
			c0.52,0,1.27,0.21,2.26,0.62c1.09,0.42,2.12,0.53,2.38,0.51c0.92-0.1,1.53-0.31,2.34-1.17c0.81-0.86,1.44-1.99,1.91-3.39
			c0.94-2.6,1.4-4.94,1.4-7.02c0-2.23-0.35-4.59-1.05-7.06c-0.7-2.47-1.65-4.87-2.85-7.21l-1.25-2.5c-1.3-2.6-2.3-4.65-3-6.16
			c-0.7-1.51-1.31-3.14-1.83-4.91c-0.78-2.5-1.17-4.91-1.17-7.25c0-1.87,0.32-3.64,0.98-5.3c0.65-1.66,1.62-3.07,2.92-4.21
			c1.3-1.25,2.91-1.87,4.84-1.87c0.94,0,1.84,0.27,2.73,0.82c0.4,0.24,0.87,0.55,1.16,0.85c0.58,0.6,0.59,1.56,0.06,2.21v0
			c-0.32,0.4-0.81,0.65-1.33,0.64c-0.45-0.02-0.92-0.16-1.32-0.32c-0.98-0.4-2.12-0.32-2.95,0.35c-0.2,0.16-0.4,0.35-0.58,0.56
			c-0.7,0.81-1.23,1.73-1.6,2.77c-0.31,0.99-0.47,1.98-0.47,2.96c0,1.98,0.27,3.99,0.82,6.04c0.55,2.05,1.26,3.99,2.14,5.81
			l5.46,10.92c0.88,1.87,1.59,3.98,2.11,6.32c0.52,2.34,0.78,4.68,0.78,7.02c0,3.43-0.83,6.66-2.49,9.67
			c-0.88,1.56-2.03,2.8-3.43,3.7c-1.4,0.91-2.96,1.36-4.68,1.36C308.99,117.2,307.38,116.87,306.03,116.19z"/>
	</g>
	<polygon class="st12" points="136.74,18.45 135.69,24.5 129.84,22.72 128.69,27.65 134.71,28.68 132.97,34.54 137.86,35.69 
		138.9,29.66 144.76,31.41 145.91,26.49 139.88,25.48 141.63,19.59 	"/>
	<path class="st30" d="M87.36,65.39c0.01,0-0.17,0.2-0.14,0.21c0.07,0.01,0.52,0.78,0.56,0.79c1.08,0.17,1.98-0.13,2.98-0.11
		c0.05-0.47,0.08-1.28,0.07-1.7c-0.01-0.37-0.02-0.73-0.05-1.06c-0.77,0.48-1.34,0.74-1.73,0.95c-0.2,0.11-0.76,0.42-1.48,0.86
		C87.5,65.38,87.41,65.36,87.36,65.39z"/>
	<path class="st14" d="M87.93,65.63c0.01-0.12,0.02-0.26,0.02-0.4c0-0.19-0.02-0.36-0.05-0.5c0.78-0.33,1.56-0.66,2.34-0.98
		c0.01,0.29,0.02,0.6,0.02,0.91c0,0.47-0.02,0.92-0.04,1.35C89.45,65.88,88.69,65.75,87.93,65.63z"/>
	<path class="st15" d="M88.52,65.72c0.01-0.14,0.01-0.28,0.02-0.43c0-0.25,0-0.5-0.02-0.72c0.4-0.24,0.8-0.48,1.2-0.72
		c0,0.44-0.01,0.89-0.04,1.37c-0.01,0.22-0.03,0.44-0.05,0.65C89.26,65.82,88.89,65.77,88.52,65.72z"/>
	<g>
		<path class="st16" d="M104.72,34.64c2.08-3.77,5.04-6.98,8.64-9.34c4.7-3.09,9.54-6.18,14.5-9.27c5.9-3.67,11.71-7.18,17.43-10.53
			c1.54-0.9,3.53-0.77,4.84,0.46c0.01,0.01,0.02,0.02,0.03,0.03c2.45,2.32,3.61,3.68,6.56,8.36c3.53,5.58,4.48,6.99,5.39,10.55
			c0.01,0.05,0.03,0.1,0.04,0.15c0.39,1.7-0.36,3.46-1.82,4.42c-5.3,3.47-10.73,6.95-16.29,10.43c-5.29,3.31-10.52,6.52-15.7,9.63
			c-3.62,2.18-7.72,3.44-11.94,3.69c-0.64,0.04-0.35,0.02-0.98,0.06"/>
		<path class="st16" d="M87.43,52.77c-1.04,0.64-2.25,1.41-4.34,2.85c-0.48,0.33-4.35,2.77-5.86,3.75
			c-0.25,0.16-0.25,0.52-0.01,0.68c0.73,0.49,1.79,1.45,2.71,2.97c0.79,1.29,1.21,2.51,1.37,3.34c0.07,0.36,0.49,0.54,0.8,0.34
			c0.57-0.37,1.18-0.78,2.02-1.29c1.38-0.84,2.76-1.68,3.11-1.87c1.35-0.76,2.33-1.33,3.13-1.81c0.88-0.52,2.15-1.27,3.68-2.22"/>
	</g>
	<g>
		<path class="st17" d="M104.72,34.64c2.08-3.77,5.04-6.98,8.64-9.34c4.7-3.09,9.54-6.18,14.5-9.27c5.9-3.67,11.71-7.18,17.43-10.53
			c1.54-0.9,3.53-0.77,4.84,0.46c0.01,0.01,0.02,0.02,0.03,0.03c2.45,2.32,3.61,3.68,6.56,8.36c3.53,5.58,4.48,6.99,5.39,10.55
			c0.01,0.05,0.03,0.1,0.04,0.15c0.39,1.7-0.36,3.46-1.82,4.42c-5.3,3.47-10.73,6.95-16.29,10.43c-5.29,3.31-10.52,6.52-15.7,9.63
			c-3.62,2.18-7.72,3.44-11.94,3.69c-0.64,0.04-1.27,0.07-1.91,0.11"/>
		<path class="st17" d="M87.43,52.77c-1.04,0.64-2.25,1.41-4.34,2.85c-0.48,0.33-4.35,2.77-5.86,3.75
			c-0.25,0.16-0.25,0.52-0.01,0.68c0.73,0.49,1.79,1.45,2.71,2.97c0.79,1.29,1.21,2.51,1.37,3.34c0.07,0.36,0.49,0.54,0.8,0.34
			c0.57-0.37,1.18-0.78,2.02-1.29c1.38-0.84,2.76-1.68,3.11-1.87c1.35-0.76,2.33-1.33,3.13-1.81c0.88-0.52,2.15-1.27,3.68-2.22"/>
	</g>
	<g>
		<path class="st18" d="M104.72,34.64c2.08-3.77,5.04-6.98,8.64-9.34c4.7-3.09,9.54-6.18,14.5-9.27c5.9-3.67,11.71-7.18,17.43-10.53
			c1.54-0.9,3.53-0.77,4.84,0.46c0.01,0.01,0.02,0.02,0.03,0.03c2.45,2.32,3.61,3.68,6.56,8.36c3.53,5.58,4.48,6.99,5.39,10.55
			c0.01,0.05,0.03,0.1,0.04,0.15c0.39,1.7-0.36,3.46-1.82,4.42c-5.3,3.47-10.73,6.95-16.29,10.43c-5.29,3.31-10.52,6.52-15.7,9.63
			c-3.62,2.18-7.72,3.44-11.94,3.69c-0.64,0.04-1.27,0.07-1.91,0.11"/>
		<path class="st18" d="M87.43,52.77c-1.04,0.64-2.25,1.41-4.34,2.85c-0.48,0.33-4.35,2.77-5.86,3.75
			c-0.25,0.16-0.25,0.52-0.01,0.68c0.73,0.49,1.79,1.45,2.71,2.97c0.79,1.29,1.21,2.51,1.37,3.34c0.07,0.36,0.49,0.54,0.8,0.34
			c0.57-0.37,1.18-0.78,2.02-1.29c1.38-0.84,2.76-1.68,3.11-1.87c1.35-0.76,2.33-1.33,3.13-1.81c0.88-0.52,2.15-1.27,3.68-2.22"/>
	</g>
	<polygon class="st19" points="136.74,18.45 135.69,24.5 129.84,22.72 128.69,27.65 134.71,28.68 132.97,34.54 137.86,35.69 
		138.9,29.66 144.76,31.41 145.91,26.49 139.88,25.48 141.63,19.59 	"/>
	<polygon class="st20" points="136.74,18.45 135.69,24.5 129.84,22.72 128.69,27.65 134.71,28.68 132.97,34.54 137.86,35.69 
		138.9,29.66 144.76,31.41 145.91,26.49 139.88,25.48 141.63,19.59 	"/>
	<path class="st31" d="M89.05,66C87.2,84.21,72.3,98.23,53.67,98.35C33.92,98.48,17.8,82.56,17.68,62.81
		c-0.13-19.75,15.79-35.87,35.54-35.99c14.3-0.09,26.69,8.22,32.49,20.31"/>
	<path class="st31" d="M43.89,56.27c2.71-2.43,5.93-5.03,9.7-7.6c3.69-2.52,7.22-4.55,10.4-6.17"/>
	<path class="st31" d="M47.45,54.22c0.54,0.2,5.36,6.23,11.69,1.55c5.78-4.28,2.02-9.96,2.04-10.74"/>
	<path class="st31" d="M35.17,54.62c0.16-1.64,0.83-6.53,4.78-10.87c4.59-5.05,10.42-5.86,11.9-6.03"/>
	<line class="st31" x1="72.67" y1="37.87" x2="76.93" y2="36.34"/>
	<path class="st31" d="M66.88,59.57c0.62-0.03,6.51-0.18,10.24,4.54c3.01,3.81,3.4,9.24,0.94,13.74"/>
	<path class="st31" d="M118.48,73.32c-2.09-2.26-4.52-4.66-7.32-7.08c-1.88-1.62-2.65-2.52-4.42-3.83
		c-0.85-0.63-1.83-1.12-3.05-1.01c-0.18,0.02-0.45,0.1-0.62,0.17c-1.21,0.5-2.26,0.88-3.24,1.2c-0.97,0.31-1.87,0-2.46-0.21
		c-1.64-0.57-2.51-1.83-3.09-2.67c-0.75-1.09-1.44-2.09-1.35-3.52c0.01-0.16,0.18-2.45,1.55-3.03c1.92-0.81,3.62,2.83,7.26,2.79
		c0.98-0.01,2.13-0.5,4.43-1.48c2.47-1.05,3.04-1.27,4.15-1.56c2.72-0.71,2.7-0.79,6.17,0.55c1.33,0.51,3.45,2.04,3.67,2.21
		c7.48,5.48,14.18,9.46,21.66,14.94c0.73,0.59,3.48,2.98,4.17,7.13c0.57,3.39-0.56,6.04-1.02,6.99"/>
	<path class="st31" d="M85.68,51.75c-0.04-0.02-0.06-0.05-0.08-0.09c-0.21-0.44-0.72-1.73-0.35-3.32c0.41-1.71,1.59-2.67,2.03-2.98
		c0.06-0.05,0.1-0.12,0.09-0.19c-0.04-0.54-0.08-2.26,1.19-3.72c1.41-1.62,3.37-1.71,4.01-1.7c0.11,0,0.2-0.07,0.22-0.18
		c0.13-0.69,0.59-2.47,2.28-3.77c1.39-1.07,2.86-1.23,3.48-1.26c0.06,0,0.1-0.02,0.14-0.06c0.39-0.37,1.4-1.24,2.97-1.47
		c1.86-0.27,3.25,0.53,3.67,0.8c0.03,0.02,0.05,0.04,0.07,0.07c0.8,1.27,0.81,2.84,0.05,3.91c-0.92,1.3-2.9,1.75-4.57,0.9
		c-0.17-0.09-0.37,0.06-0.32,0.25c0.2,0.7,0.38,1.93-0.34,3c-0.87,1.31-2.73,1.86-4.46,1.22c-0.17-0.06-0.34,0.1-0.29,0.27
		c0.19,0.61,0.39,1.68-0.14,2.66c-0.71,1.32-2.32,1.92-4.11,1.43c-0.19-0.05-0.36,0.14-0.27,0.31c0.61,1.1,0.32,2.35-0.2,3.22
		C89.9,52.5,87.56,53.04,85.68,51.75z"/>
	<path class="st32" d="M97.75,36c0.25,0.53,0.44,0.99,0.57,1.35c0.26,0.7,0.4,1.27,0.51,1.69c0.09,0.35,0.16,0.65,0.2,0.87
		c1.03-0.79,2.05-1.59,3.08-2.38c-0.19-0.1-0.44-0.25-0.72-0.46c-0.44-0.32-0.73-0.63-0.91-0.82c-0.77-0.82-1.36-1.83-1.58-2.21
		C98.51,34.69,98.13,35.34,97.75,36z"/>
	<path class="st32" d="M92.58,41.26c0.16,0.3,0.39,0.73,0.65,1.27c0.2,0.41,0.31,0.63,0.42,0.92c0.14,0.34,0.32,0.83,0.47,1.46
		c1.07-1.02,2.14-2.05,3.21-3.07c-0.4-0.05-1.33-0.21-2.22-0.93c-1.03-0.82-1.39-1.87-1.49-2.24
		C93.28,39.53,92.93,40.39,92.58,41.26z"/>
	<path class="st32" d="M87.78,46.76c0.25,0.18,0.55,0.42,0.84,0.74c0.17,0.18,0.41,0.47,0.64,0.86c0.17,0.3,0.29,0.57,0.38,0.78
		c0.79-1.05,1.59-2.1,2.39-3.15c-0.02,0-0.82-0.19-0.83-0.19c-0.94-0.22-1.41-0.33-1.75-0.5c-0.2-0.1-0.5-0.28-0.82-0.57
		C88.34,45.41,88.06,46.08,87.78,46.76z"/>
	<g>
		<path class="st23" d="M89.08,65.68c-1.56,18.2-16.78,32.55-35.41,32.67C33.92,98.48,17.8,82.56,17.68,62.81
			c-0.13-19.75,15.79-35.87,35.54-35.99c14.3-0.09,26.69,8.22,32.49,20.31"/>
		<path class="st23" d="M43.89,56.27c2.71-2.43,5.93-5.03,9.7-7.6c3.69-2.52,7.22-4.55,10.4-6.17"/>
		<path class="st23" d="M47.45,54.22c0.54,0.2,5.36,6.23,11.69,1.55c5.78-4.28,2.04-10.29,1.94-10.88"/>
		<path class="st23" d="M35.17,54.62c0.16-1.64,0.83-6.53,4.78-10.87c4.59-5.05,10.42-5.86,11.9-6.03"/>
		<line class="st23" x1="72.67" y1="37.87" x2="76.93" y2="36.34"/>
		<path class="st23" d="M66.88,59.57c0.62-0.03,6.51-0.18,10.24,4.54c3.01,3.81,3.4,9.24,0.94,13.74"/>
		<path class="st23" d="M118.48,73.32c-2.09-2.26-4.52-4.66-7.32-7.08c-1.88-1.62-2.65-2.52-4.42-3.83
			c-0.85-0.63-1.83-1.12-3.05-1.01c-0.18,0.02-0.45,0.1-0.62,0.17c-1.21,0.5-2.26,0.88-3.24,1.2c-0.97,0.31-1.87,0-2.46-0.21
			c-1.64-0.57-2.51-1.83-3.09-2.67c-0.75-1.09-1.44-2.09-1.35-3.52c0.01-0.16,0.18-2.45,1.55-3.03c1.92-0.81,3.62,2.83,7.26,2.79
			c0.98-0.01,2.13-0.5,4.43-1.48c2.47-1.05,3.06-1.21,4.15-1.56c2.67-0.86,3.27-0.65,6.17,0.55c1.22,0.51,3.45,2.04,3.67,2.21
			c7.48,5.48,14.18,9.46,21.66,14.94c0.73,0.59,3.48,2.98,4.17,7.13c0.57,3.39-0.56,6.04-1.02,6.99"/>
		<path class="st23" d="M85.63,51.72c-0.18-0.38-0.77-1.71-0.37-3.37c0.44-1.87,1.81-2.84,2.13-3.05c-0.04-0.32-0.22-2.23,1.17-3.84
			c1.61-1.86,3.94-1.71,4.19-1.69c0.07-0.46,0.43-2.51,2.31-3.96c1.46-1.12,3-1.24,3.56-1.26c0.33-0.33,1.37-1.29,3.03-1.53
			c1.92-0.28,3.35,0.59,3.71,0.83c0.83,1.28,0.85,2.87,0.08,3.96c-1,1.4-3.65,1.85-4.99,0.67c-0.02-0.02-0.06,0-0.05,0.03
			c0.18,0.46,0.73,2.08-0.18,3.45c-0.95,1.42-3.08,1.96-4.93,1.02c0.1,0.21,0.79,1.76,0.04,3.14c-0.8,1.47-2.61,1.89-4.76,1.21
			c1.08,1.21,0.79,2.74,0.18,3.75C89.89,52.51,87.52,53.05,85.63,51.72z"/>
		<path class="st24" d="M98.11,34.43c0.17,0.65,0.18,0.87,0.35,1.3c0,0,0.27,0.73,0.62,1.73c0.36,1.07,0.66,1.93,0.88,1.87
			c0.11-0.03,0.03-0.51,0.09-0.58c0.14-0.11,0.27-0.22,0.41-0.32c0.02,0.03,0.16,0.3,0.47,0.35c0.22,0.04,0.39-0.07,0.48-0.12
			c0.12-0.07,0.44-0.33,0.31-0.41c-0.14-0.08-0.05-0.09-0.09-0.11c-0.24-0.1-0.61-0.35-1.19-0.83c-0.2-0.16-0.59-0.47-0.84-0.96
			c-0.13-0.25-0.2-0.49-0.21-0.54c-0.06-0.24-0.08-0.42-0.1-0.6c-0.02-0.2-0.02-0.48,0.01-0.81c-0.64-0.05-0.86-0.12-0.89-0.18
			C98.39,34.21,98.38,34.19,98.11,34.43z"/>
		<path class="st24" d="M91.02,39.81c0.15,0.37,0.6,0.47,1.08,0.58c0.59,0.14,1.09,0.51,1.42,1.01c0.21,0.32,0.44,0.73,0.61,1.16
			C94.61,43.6,94.78,44,95,43.92c0.1-0.04,0.19-0.1,0.24-0.18c0.21-0.23,0.42-0.45,0.62-0.68c0.07-0.03,0.15-0.09,0.17-0.17
			c0,0,0.01-0.03,0.01-0.07c-0.01-0.26-0.6-0.68-0.6-0.68c-0.58-0.42-0.72-0.51-0.9-0.69c-0.15-0.16-0.3-0.34-0.3-0.34
			c-0.05-0.06-0.12-0.14-0.2-0.26c0,0-0.01-0.01-0.01-0.02c-0.31-0.41-0.49-0.92-0.48-1.44c0.01-0.4,0-0.82-0.06-0.88
			C93.36,38.36,91.44,40.03,91.02,39.81z"/>
		<path class="st25" d="M87.05,45.81c0.14,0.06,0.34,0.16,0.57,0.29c0.47,0.27,0.79,0.53,1.02,0.72c0.18,0.15,0.41,0.35,0.67,0.61
			c0.38-0.4,0.75-0.81,1.13-1.21c-0.37-0.13-0.68-0.26-0.93-0.38c-0.34-0.17-0.58-0.28-0.85-0.5c-0.3-0.24-0.52-0.5-0.67-0.73
			C87.66,45.01,87.35,45.41,87.05,45.81z"/>
	</g>
	<g>
		<path class="st26" d="M89.08,65.68c-1.56,18.2-16.78,32.55-35.41,32.67C33.92,98.48,17.8,82.56,17.68,62.81
			c-0.13-19.75,15.79-35.87,35.54-35.99c14.3-0.09,26.69,8.22,32.49,20.31"/>
		<path class="st26" d="M43.89,56.27c2.71-2.43,5.93-5.03,9.7-7.6c3.69-2.52,7.22-4.55,10.4-6.17"/>
		<path class="st26" d="M47.24,53.9c0.55,0.53,5.58,6.55,11.9,1.87c5.78-4.28,2.11-10.23,1.72-11.12"/>
		<path class="st26" d="M35.17,54.62c0.16-1.64,0.83-6.53,4.78-10.87c4.59-5.05,10.42-5.86,11.9-6.03"/>
		<line class="st26" x1="72.67" y1="37.87" x2="77.27" y2="36.23"/>
		<path class="st26" d="M66.88,59.57c0.62-0.03,6.51-0.18,10.24,4.54c3.01,3.81,3.4,9.24,0.94,13.74"/>
		<path class="st26" d="M118.48,73.32c-2.09-2.26-4.52-4.66-7.32-7.08c-1.88-1.62-2.65-2.52-4.42-3.83
			c-0.85-0.63-1.83-1.12-3.05-1.01c-0.18,0.02-0.45,0.1-0.62,0.17c-1.21,0.5-2.26,0.88-3.24,1.2c-0.97,0.31-1.87,0-2.46-0.21
			c-1.64-0.57-2.51-1.83-3.09-2.67c-0.75-1.09-1.44-2.09-1.35-3.52c0.01-0.16,0.18-2.45,1.55-3.03c1.92-0.81,3.62,2.83,7.26,2.79
			c0.98-0.01,2.13-0.5,4.43-1.48c2.47-1.05,3.06-1.21,4.15-1.56c2.67-0.86,2.71-0.67,6.17,0.55c1.34,0.48,3.45,2.04,3.67,2.21
			c7.48,5.48,14.18,9.46,21.66,14.94c0.73,0.59,3.48,2.98,4.17,7.13c0.57,3.39-0.56,6.04-1.02,6.99"/>
		<path class="st26" d="M85.63,51.72c-0.18-0.38-0.77-1.71-0.37-3.37c0.44-1.87,1.81-2.84,2.13-3.05c-0.04-0.32-0.22-2.23,1.17-3.84
			c1.61-1.86,3.94-1.71,4.19-1.69c0.07-0.46,0.43-2.51,2.31-3.96c1.46-1.12,3-1.24,3.56-1.26c0.33-0.33,1.37-1.29,3.03-1.53
			c1.92-0.28,3.35,0.59,3.71,0.83c0.83,1.28,0.85,2.87,0.08,3.96c-1.02,1.44-3.44,1.78-5.08,0.52c0,0.18,0.9,2.06-0.14,3.62
			c-0.95,1.42-3.08,1.96-4.93,1.02c0.1,0.21,0.79,1.76,0.04,3.14c-0.8,1.47-2.71,2.05-4.76,1.21c1.08,1.21,0.79,2.74,0.18,3.75
			C89.89,52.51,87.52,53.05,85.63,51.72z"/>
		<path class="st27" d="M87.06,45.63c0.19-0.01,0.48,0,0.8,0.1c0.09,0.03,0.29,0.1,0.59,0.28c0.26,0.16,0.65,0.43,1.05,0.9
			c0.09-0.15,0.18-0.3,0.27-0.46c-0.59-0.21-1.01-0.49-1.28-0.69c-0.43-0.33-0.54-0.54-0.58-0.62c-0.19-0.41-0.12-0.81-0.08-1
			c-0.16,0.21-0.32,0.47-0.48,0.77C87.23,45.18,87.13,45.42,87.06,45.63z"/>
		<path class="st27" d="M92.17,40.09c0.31,0.14,0.68,0.35,1.06,0.66c0.79,0.66,1.16,1.43,1.34,1.88c0.26-0.04,0.53-0.07,0.79-0.11
			c-0.21-0.12-0.48-0.29-0.77-0.55c-0.26-0.23-0.66-0.6-0.93-1.2c-0.31-0.7-0.28-1.35-0.23-1.69
			C93.01,39.42,92.59,39.76,92.17,40.09z"/>
		<path class="st27" d="M97.76,34.94c0.49,0.21,0.84,0.58,1,1c0.13,0.34,0.3,0.6,0.43,0.92c0.11,0.27,0.57,1.38,0.74,1.86
			c0.28,0.02,0.18-0.89,0.46-0.86c-0.21-0.17-0.38-0.39-0.65-0.77c-0.24-0.33-0.5-0.7-0.61-1.19c-0.05-0.22-0.19-0.69-0.03-1.25
			C98.8,34.76,98.07,34.83,97.76,34.94z"/>
	</g>
	<path class="st3" d="M165.78,115.02c-0.47-0.22-0.81-0.43-0.94-0.75c-0.15-0.36-0.13-0.58,0.04-0.93c0.76-1.58,0.79-4.81,0.79-9.4
		c0-2.96-0.39-7.22-0.7-12.89c-0.29-5.45-0.48-7.58-0.54-10.95l-0.15-5.38c0.05-1.25,0.01-4.26-0.18-6.22
		c-0.12-1.25-0.28-2.23-0.53-4.73c-0.24-2.41-0.52-3.52-0.52-4.46c0-1.82,0.84-2.46,4.71-2.46l2.03,0c2.71,0,4.65,1,6.66,2.71
		c1.61,1.45,2.88,3.71,3.99,6.46c0.75,1.87,1.21,4.07,1.76,7.4c0.3,2.91,0.39,4.86,0.39,6.53l0.04,2.87v3.23
		c-0.02,0.39-0.07,2.67-0.07,2.98c0,1.66-0.22,3.04-0.7,5.35c-0.48,2.31-1.17,4.66-2.07,7.04c-2.26,5.71-4.6,9.26-7.41,11.65
		c-1.72,1.35-2.66,2.01-4.5,2.24C166.92,115.44,166.56,115.39,165.78,115.02z M174.14,106.13c1.4-2.26,2.53-4.97,3.29-7.72
		c1.36-5.09,2.11-10.52,2.11-15.71c0-2.81-0.4-5.89-0.91-9.21c-0.55-3.22-1.54-6.1-3.34-8.7c-0.85-1.25-2.34-2.4-3.64-3.1
		c-1.31-0.7-3.15-0.86-4.8-0.86l-0.16,1c-0.01,0.08-0.02,0.15-0.02,0.23c0.01,4.67,0.17,11.32,0.88,20.49
		c0.73,9.39,0.91,16.4,0.91,21.23l0.12,8.08C170.44,110.66,172.73,108.39,174.14,106.13z"/>
	<path class="st3" d="M204.61,114.19l-0.13-0.41c-0.22-2.75-0.54-5.65-1.32-9.03c-0.78-3.38-2.02-7.72-3.52-12.51
		c-1.14-3.59-2.33-6.94-3.11-9.8l-0.45,29.29c0,0.83,0.02,3.07-0.27,3.46c-0.29,0.39-0.66,0.6-1.49,0.6c-0.62,0-0.79-0.14-1.16-0.53
		c-0.36-0.39-0.45-0.72-0.45-1.34v-1.8l0.38-21.55c0.1-6.76,0.12-14.28,0.12-22.76l-0.05-9.24c0-0.62-0.02-1.4,0.24-1.64
		c0.26-0.23,0.89-0.33,1.72-0.33c1.3,0,2.11,0.25,3.2,0.74c1.09,0.49,1.93,1.18,2.71,2.06c1.61,1.82,2.44,3.46,2.91,6
		c0.21,1.04,0.31,2.24,0.31,3.59c0,0.78,0.06,1.27-0.07,2.2c-0.13,0.94-0.29,1.95-0.34,2.21c-0.1,0.52-0.18,0.97-0.55,2
		c-0.36,1.04-0.7,1.95-0.8,2.26l-0.93,2.16l-0.98,2.1c0.05,1.87,0.5,4.31,1.1,7.17c0.6,2.86,1.26,5.53,1.99,7.97
		c0.52,1.72,1.44,4.68,2.8,8.69l2.17,6.59l0.09,0.37c0,0.88,0.12,1.38-0.04,2c-0.16,0.83-0.7,1.25-1.64,1.25
		C206.08,115.99,205.55,115.59,204.61,114.19z M198.81,77.02c0.29-0.36,0.65-1.22,0.74-1.68c0.23-0.67,0.45-1.42,0.64-2.24
		c0.24-1.06,0.4-2.14,0.47-3c-0.02-0.22-0.01-1.46-0.01-1.52c0-1.51-0.28-3.32-0.86-5.29c-0.31-0.94-0.67-1.88-1.16-2.53
		c-0.5-0.65-1.77-1.49-2.29-1.54l-0.19,8.22c-0.16,3.48-0.13,6.22-0.13,8.14c0,1.82,0.25,3.63,0.3,4.2
		C196.93,79.16,197.98,78.06,198.81,77.02z"/>
	<path class="st3" d="M221.55,112.53c-2.03-2.86-3.5-6.25-4.33-10.41c-0.94-4.42-1.48-9.01-1.74-14.05
		c-0.26-4.57-0.49-9.38-0.49-14.74l-0.02-6.3c0.07-2.29-0.15-3.28-0.29-4.49c0,0-0.12-0.96-0.27-2.7c-0.01-0.1-0.08-0.57-0.01-0.86
		c0.1-0.38,0.31-0.74,0.62-1.07c0.47-0.49,0.99-0.82,1.56-0.74c1.8,0.26,2.44,1.51,2.44,5.21c0,2.39,0.12,6.92,0.39,13.57
		c0.25,6.32,0.32,10.65,0.33,13.12c0,0.25,0.01,0.5,0.03,0.75c0.12,1.29,0.24,2.48,0.45,4.33c0.23,2.03,0.41,3.2,0.55,4.67
		c0.11,1.14,0.21,2.31,0.58,4c0.36,1.69,1.01,3.47,1.68,5.19c0.67,1.82,1.65,3.38,2.74,4.55c1.09,1.17,2.01,1.76,3.2,1.76
		c0.73,0,1.68-0.25,2.18-0.72c0.49-0.47,1.02-1.08,1.18-1.97c0.31-1.46,0.47-2.95,0.47-4.36l-0.04-15.27c0-1.92,0.02-5.96-0.34-8.92
		c-0.31-3.28-0.82-10.93-0.82-10.93c0-1.46-0.06-3.67-0.22-6.64c-0.21-2.65-0.29-4.59-0.29-6.41c0-0.57,0.12-1.1,0.72-1.52
		c0.6-0.42,1.26-0.62,1.99-0.62v0c1.13,0.31,1.56,2.41,1.38,4.06c-0.17,1.59-0.29,3.36-0.29,3.48c0,4.73,0.23,11.33,0.75,19.65
		c0.47,8.73,0.68,15.55,0.68,20.39c0,2.6-0.27,4.72-0.79,6.7c-0.31,1.2-0.56,1.88-1.11,2.61c-0.55,0.73-1.29,1.35-2.22,1.87
		c-0.88,0.52-2.03,0.78-3.43,0.78C225.55,116.52,223.42,115.34,221.55,112.53z"/>
	<path class="st3" d="M259.65,100.58c-3.64-12.53-6.64-24.42-9.75-34.9l-0.25,24.1c0,2.18,0.32,7.84,0.74,13.09
		c0.36,5.72,0.5,9.01,0.5,10.67c0,0.47-0.17,0.9-0.74,1.24c-0.57,0.34-1.22,0.52-1.95,0.51c-0.88-0.02-1.03-0.47-1.14-1.21
		l0.03-2.09c0.1-1.66,0.16-2.76,0.16-3.28c0-2.76-0.12-6.91-0.43-12.89c-0.31-6.08-0.41-9.77-0.41-11.07v-9.98
		c0-1.61,0.07-4.15,0.21-7.32c0.12-2.76,0.08-3.24,0.17-5.27l0.11-2.92c0-2.6,0.33-2.98,1.47-2.98c0.67,0,1.48,1.28,2.52,3.57
		c1.66,4.16,3.6,9.98,6.36,19.68c1.59,5.59,3.18,12.76,5.36,21.62c-0.05-0.21,0.52,1.57,1.41,5.37l0.08,0.39
		c0.26-4.88,0.31-9.45,0.42-13.46l0.22-13.62l-0.1-23.01c0.21-1.3,0.82-1.99,2.26-1.8c1.37,0.18,1.68,0.45,1.7,2.37
		c0,0.09,0,0.18-0.02,0.26c-0.06,0.47-0.26,2.12-0.26,2.87c0,3.17-0.12,7.91-0.27,14.3c-0.16,6.45-0.13,11.32-0.13,14.54
		l-0.06,23.69c0,0.83-0.11,1.56-0.55,2.31c-0.44,0.75-0.83,0.98-1.46,0.98C264.79,116.36,262.87,111.3,259.65,100.58z"/>
	<path class="st3" d="M296.17,117.1C296.17,117.1,296.18,117.1,296.17,117.1c-0.51-0.1-0.91-0.44-1-0.95
		c-1.35-7.55-2.67-13.99-4.02-19.13c-1.4-5.35-3.15-10.52-5.45-15.22l-1.64,2.57c-0.47,0.88-1.01,2.1-1.07,2.78
		c-0.16,1.56-0.19,2.81-0.19,3.53c0,1.56,0.02,4.08,0.17,7.31c0.16,3.17,0.29,5.46,0.29,7.12l0.01,6.33c0,2.76-0.61,3.9-2.38,3.9
		c-1.51,0-2.01-1.07-2.01-3.98c0-2.29,0.27-5.59,0.58-10.32c0.36-4.37,0.49-7.95,0.49-10.55v-6.72l-0.02-8.03
		c0-2.86-0.12-5.98-0.48-9.1c-0.36-3.22-0.58-4.97-0.58-6.64c0-0.68-0.06-1.68,0.37-2.15c0.39-0.43,1.05-0.72,1.63-0.72
		c1.92,0,2.4,1.88,2.53,5.99l-0.1,16.12l1.71-3.88c1.72-4.37,3.43-8.62,5.25-12.89c1.04-2.34,1.98-4.18,2.81-5.53
		c0.88-1.4,1.38-1.96,1.9-1.96c0.57,0,1.08,0.2,1.52,0.58c0.44,0.39,0.6,0.88,0.6,1.45c0,0.52-1.43,3.32-4.23,9.24
		c-2.76,5.67-4.33,9.5-4.8,11.37l-0.04,1.51c0.78,1.98,2.91,8.37,6.29,19.05c3.38,10.68,5.02,16.29,5.02,16.91
		c0,0.62-0.09,0.96-0.59,1.38c-0.49,0.42-0.84,0.59-1.57,0.66C296.85,117.18,296.49,117.21,296.17,117.1z"/>
	<path class="st3" d="M306.23,115.98c-0.83-0.47-1.22-0.68-1.22-1.31c0-0.62,0.16-1.13,0.47-1.52c0.31-0.39,0.77-0.32,1.34-0.32
		c0.52,0,1.05,0.09,2.03,0.51c1.09,0.42,2.12,0.53,2.38,0.51c0.92-0.1,1.71-0.33,2.52-1.19c0.81-0.86,1.55-2.07,2.02-3.47
		c0.94-2.6,1.5-5.13,1.5-7.21c0-2.23-0.5-4.83-1.2-7.3c-0.7-2.47-1.68-4.79-2.87-7.13l-1.28-2.64c-1.3-2.6-2.14-4.44-2.84-5.95
		c-0.7-1.51-1.31-3.14-1.83-4.91c-0.78-2.5-1.19-4.73-1.19-7.07c0-1.87,0.32-3.64,0.98-5.3c0.65-1.66,1.45-2.83,2.75-3.97
		c1.3-1.25,2.72-1.78,4.65-1.78c0.94,0,1.75,0.12,2.64,0.59c0.41,0.22,0.91,0.52,1.16,0.85c0.46,0.59,0.51,1.15-0.01,1.88l0,0
		c-0.32,0.4-0.62,0.51-1.13,0.49c-0.45-0.02-0.92-0.16-1.32-0.32c-0.98-0.4-2.12-0.32-2.95,0.35c-0.2,0.16-0.67,0.55-0.86,0.77
		c-0.7,0.81-1.23,1.73-1.6,2.77c-0.31,0.99-0.51,2.22-0.51,3.21c0,1.98,0.38,4.18,0.93,6.23c0.55,2.05,1.31,3.97,2.19,5.79
		l5.59,11.06c0.88,1.87,1.39,3.54,1.91,5.88c0.52,2.34,0.73,4.59,0.73,6.93c0,3.43-0.7,6.45-2.36,9.46
		c-0.88,1.56-1.95,2.81-3.35,3.72c-1.4,0.91-2.71,1.41-4.42,1.41C309.2,116.99,307.58,116.65,306.23,115.98z"/>
	<path class="st4" d="M166.15,114.18c-0.3-0.18-0.34-0.22-0.39-0.32c-0.16-0.36-0.12-0.78,0.07-1.12c0.9-1.57,0.55-4.12,0.55-8.86
		c0-2.96-0.32-7.27-0.62-12.94c-0.29-5.45-0.53-7.46-0.59-10.82l-0.15-5.38c0.05-1.25-0.02-4.26-0.21-6.22
		c-0.12-1.25-0.28-2.23-0.53-4.73c-0.24-2.41-0.37-3.4-0.3-4.33c0.11-1.44,0.37-1.29,3.79-1.53l2.03,0c2.71,0,4.52,0.97,6.53,2.68
		c1.61,1.45,2.22,3.13,3.33,5.88c0.75,1.87,1.21,4.07,1.76,7.4c0.3,2.91,0.37,4.34,0.37,6l0.04,2.87v3.23
		c-0.02,0.39-0.07,2.67-0.07,2.98c0,1.66-0.22,3.04-0.7,5.35c-0.48,2.31-1.05,4.19-1.95,6.58c-2.26,5.71-4.6,9.26-7.41,11.65
		c-1.72,1.35-1.62,1.57-3.44,1.91C167.41,114.63,166.78,114.56,166.15,114.18z M174.76,106.98c1.4-2.26,2.74-5.32,3.49-8.07
		c1.36-5.09,2.13-10.73,2.13-15.92c0-2.81-0.41-6.22-0.91-9.55c-0.55-3.22-1.59-6.82-3.4-9.42c-0.85-1.25-2.67-2.56-3.98-3.27
		c-1.31-0.7-4.37-0.76-6.02-0.76l-0.14,2c-0.01,0.08-0.02,0.15-0.02,0.23c0.01,4.67,0.23,11.08,0.92,20.29
		c0.71,9.39,0.96,16.48,0.96,21.31l0.19,9.15C170.31,112.49,173.36,109.24,174.76,106.98z"/>
	<path class="st4" d="M205.35,114.05l-0.13-0.41c-0.22-2.75-0.7-5.51-1.48-8.89c-1.07-4.64-2.24-8.46-3.55-12.5
		c-1.64-5.09-1.5-4.44-1.83-5.49c-0.4-1.27-0.51-2.02-1.58-4.53c-0.12-0.28-0.34-0.42-0.45-0.54c-0.24,0.95-0.24,1.94-0.33,3.48
		c-0.2,3.28-0.28,5.44-0.27,6.29c0.04,3.26-0.04,10.43-0.16,20.2c0.12,1.58,0.05,2.79-0.21,3.14c-0.29,0.39-0.39,0.41-0.97,0.43
		c-0.47,0.02-0.49,0.01-0.75-0.2c-0.41-0.34-0.31-0.5-0.31-1.13v-1.8l0.5-21.41c0.1-6.76,0.18-14.16,0.18-22.63l-0.06-8.64
		c0-0.62-0.21-1.54,0.05-1.77c0.26-0.23,0.3-0.21,1.13-0.21c1.3,0,2.11,0.25,3.2,0.74c0.98,0.44,1.74,1.19,2.45,1.98
		c0.16,0.17,0.3,0.36,0.42,0.57c1.31,2.11,1.43,2.29,1.88,4.72c0.21,1.04,0.42,1.87,0.42,3.22c0,0.78,0.06,1.27-0.07,2.2
		c-0.13,0.94-0.29,1.95-0.34,2.21c-0.1,0.52-0.18,0.97-0.55,2c-0.33,0.94-0.63,1.77-0.77,2.15c-0.03,0.07-0.05,0.15-0.08,0.22
		l-0.83,1.94c-0.03,0.08-0.07,0.16-0.11,0.23l-1.1,2.09c0.05,1.87,0.5,4.31,1.1,7.17c0.6,2.86,1.72,5.74,2.44,8.18
		c0.52,1.72,1.39,4.7,2.74,8.7l2.11,6.46l0.09,0.37c0.11,0.9,0.26,1.22,0.12,1.81c-0.19,0.81-0.33,0.94-1.22,1
		C206.37,115.48,206.15,115.29,205.35,114.05z M199.5,77.69c0.29-0.36,0.65-1.22,0.74-1.68c0.23-0.67,0.45-1.42,0.64-2.24
		c0.24-1.06,0.61-2.78,0.68-3.65c-0.02-0.22-0.01-1.46-0.01-1.52c0-1.51-0.28-3.32-0.86-5.29c-0.31-0.94-0.97-2.04-1.46-2.69
		c-0.5-0.65-1.65-2.06-3.53-1.99l-0.15,8.73c-0.03,0.68-0.22,4.77-0.11,8.13c0.04,1.12,0.11,2.27,0.36,3.67
		c0.12,0.69,0.26,1.27,0.36,1.66C197.95,79.45,199.09,78.22,199.5,77.69z"/>
	<path class="st4" d="M222.5,112.38c-2.03-2.86-3.5-6.25-4.33-10.41c-0.94-4.42-1.51-8.64-1.77-13.68
		c-0.26-4.57-0.49-9.38-0.49-14.74l-0.02-6.3c0.07-2.29-0.15-3.28-0.29-4.49c0,0-0.12-0.96-0.27-2.7c-0.01-0.1-0.13-0.62-0.05-0.9
		c0.1-0.38,0.1-0.42,0.43-0.73c0.36-0.33,0.55-0.39,1-0.34c1.05,0.13,1.5,0.5,1.5,4.2c0,2.39,0.12,6.92,0.39,13.57
		c0.25,6.34,0.32,10.68,0.33,13.15c0,0.25,0.01,0.5,0.04,0.75c0.12,1.28,0.18,2.49,0.4,4.33c0.23,2.03,0.41,3.2,0.55,4.67
		c0.11,1.14,0.21,2.31,0.58,4c0.36,1.69,1.26,3.9,1.93,5.61c0.67,1.82,1.65,3.38,2.74,4.55c1.09,1.17,2.53,1.85,3.73,1.85
		c0.73,0,2.13-0.31,2.62-0.78c0.49-0.47,1.24-1.24,1.39-2.12c0.31-1.46,0.61-3.01,0.61-4.41l-0.17-15.27c0-1.92,0.02-6.12-0.35-9.09
		c-0.31-3.28-0.79-10.9-0.79-10.9c0-1.46-0.06-3.67-0.22-6.64c-0.21-2.65-0.12-3.8-0.12-5.62c0-0.23-0.02-0.44-0.03-0.64
		c-0.02-0.56,0.29-1.08,0.8-1.31c0.3-0.14,0.61-0.21,1.04-0.21l0,0c0.93,0.54,1.07,1.46,0.89,3.12c-0.17,1.59-0.29,3.36-0.29,3.48
		c0,4.73,0.09,11.41,0.61,19.73c0.47,8.73,0.68,15.55,0.68,20.39c0,2.6-0.03,4.41-0.55,6.38c-0.31,1.2-0.56,1.88-1.11,2.61
		c-0.55,0.73-0.86,1.12-1.79,1.64c-0.88,0.52-2.03,0.78-3.43,0.78C225.46,115.92,224.37,115.19,222.5,112.38z"/>
	<path class="st4" d="M260.34,100.34c-3.97-13.18-3.5-12.1-5.13-18.8c-0.55-2.27-1.89-5.79-3.43-10.95c-0.77-2.59-1.5-4.69-2-6.07
		c-0.05,0.3-0.17,0.62-0.24,1.15c-0.08,0.6-0.12,1.37-0.17,1.69c-0.16,2.16-0.16,3.49-0.18,3.86c-0.09,1.74,0.07,6.14-0.07,18.43
		c-0.01,1.25,0.08,3.12,0.2,5.39c0.12,2.34,0.3,5.07,0.51,7.69c0.36,5.72,0.49,8.37,0.49,10.03c0,0.47,0.06,0.85-0.24,1.23
		c-0.41,0.53-1.22,0.8-1.86,0.54c-0.39-0.16-0.36-0.25-0.47-0.83l0.03-2.09c0.1-1.66,0.17-2.98,0.17-3.5
		c0-2.76-0.11-6.29-0.42-12.27c-0.31-6.08-0.41-9.77-0.41-11.07l0.09-9.79c0-1.61,0.07-4.15,0.21-7.32
		c0.12-2.76,0.08-3.24,0.17-5.27l0-2.79c0.07-2.22,0.22-2.52,0.89-2.47c0.66,0.05,0.96,0.92,2,3.21c1.66,4.16,3.37,9.77,6.13,19.47
		c1.59,5.57,3.21,12.04,5.38,20.86l0.24,0.86c0.01,0.24,0.46,1.45,1.18,4.45c0.07,0.31,0.36,0.91,0.5,1.21l0.4,0.68
		c1.03-4.06,0.95-10.21,1.06-14.21l0.08-13.79l-0.18-21.86c0-0.16,0.02-0.33,0.05-0.49c0.2-1.17,0.45-1.94,1.59-1.74
		c1.11,0.2,0.98,0.62,1.16,1.51c0,0.09,0,0.18-0.02,0.26c-0.06,0.47-0.21,2.11-0.21,2.87c0,3.17-0.16,7.81-0.32,14.2
		c-0.16,6.45-0.14,11.41-0.14,14.63l0.06,23.48c0,0.83,0.06,1.15-0.17,1.88c-0.25,0.84-0.74,0.97-1.36,0.97
		C264.84,115.6,263.57,111.05,260.34,100.34z"/>
	<path class="st4" d="M296.22,116.44C296.22,116.44,296.23,116.44,296.22,116.44c-0.51-0.1-0.59-0.56-0.68-1.07
		c-1.35-7.55-2.3-13.37-3.65-18.52c-1.4-5.35-4.08-12.57-6.19-16.03l-2.15,2.8c-0.47,0.88-1.11,2.61-1.16,3.29
		c-0.16,1.56-0.19,2.81-0.19,3.53c0,1.56-0.16,4.19,0,7.42c0.16,3.17,0.29,5.46,0.29,7.12l0.12,6.31c0,2.76-0.4,3-1.75,2.97
		c-0.96-0.02-1.24-0.44-1.29-2.91c-0.04-2.29,0.18-5.32,0.49-10.06c0.36-4.37,0.62-8.23,0.62-10.83v-6.72l-0.02-8.03
		c0-2.86-0.34-5.97-0.56-9.1c-0.23-3.24-0.54-3.76-0.54-5.43c0-0.68-0.17-1.97,0.15-2.49c0.3-0.5,0.78-0.65,1.37-0.65
		c1.59,0.46,1.37,0.91,1.51,5.02c-0.06,3.93-0.02,8,0.13,12.19c0.06,1.82,0.15,3.62,0.24,5.38c0.33-0.48,0.81-1.22,1.34-2.17
		c0.47-0.84,0.87-1.65,1.2-2.41c2.36-5.98,4.32-10.58,5.44-13.09c1.04-2.34,1.98-4.18,2.81-5.53c0.88-1.4,0.73-1.51,1.16-1.64
		c0.55-0.17,0.82-0.07,1.26,0.32c0.44,0.39,0.23,0.96,0.1,1.46c-0.13,0.5-1.09,2.39-3.9,8.32c-2.76,5.67-4.52,9.87-4.99,11.74
		l-0.04,1.51c0.78,1.98,3.01,8.59,6.4,19.28c3.38,10.68,4.88,15.58,4.88,16.2s0.1,0.91-0.24,1.28c-0.43,0.48-0.43,0.43-1.16,0.56
		C296.9,116.54,296.54,116.55,296.22,116.44z"/>
	<path class="st4" d="M306.6,115.47c-0.6-0.31-0.62-0.24-0.82-0.77c-0.23-0.58-0.09-0.9,0.27-1.24c0.19-0.18,0.36-0.17,0.92-0.09
		c0.53,0.07,0.99,0.21,1.98,0.63c1.09,0.42,2.12,0.53,2.38,0.51c0.92-0.1,2.36-0.56,3.16-1.42c0.81-0.86,1.55-2.07,2.02-3.47
		c0.94-2.6,1.57-5.55,1.57-7.63c0-2.23-0.5-4.83-1.2-7.3c-0.7-2.47-1.58-5.04-2.77-7.38l-1.28-2.64c-1.3-2.6-2.12-4.32-2.82-5.83
		c-0.7-1.51-1.31-3.14-1.83-4.91c-0.78-2.5-1.29-4.57-1.29-6.91c0-1.87,0.32-3.64,0.98-5.3c0.65-1.66,1.14-2.28,2.44-3.43
		c1.3-1.25,2.08-1.76,3.67-1.79c0.94-0.01,1.76-0.01,2.65,0.46c0.41,0.22,1.04,0.45,1.21,0.87c0.17,0.43,0.1,0.57-0.08,0.98l0,0
		c-0.42,0.34-0.47,0.27-0.98,0.25c-0.45-0.02-0.92-0.16-1.32-0.32c-0.98-0.4-2.34,0-3.16,0.67c-0.2,0.16-0.67,0.55-0.86,0.77
		c-0.7,0.81-1.52,2.07-1.88,3.11c-0.31,0.99-0.58,2.35-0.58,3.33c0,1.98,0.38,4.18,0.93,6.23c0.55,2.05,1.7,4.27,2.58,6.09
		l5.3,10.82c0.88,1.87,1.53,3.56,2.05,5.9c0.52,2.34,0.67,4.34,0.67,6.68c0,3.43-0.69,6.1-2.36,9.11c-0.88,1.56-1.73,2.6-3.14,3.51
		c-1.4,0.91-2.27,1.41-3.98,1.41C309.13,116.38,307.95,116.14,306.6,115.47z"/>
</g>
<g id="Capa_2">
</g>
</svg>
