<?xml version="1.0" encoding="utf-8"?>
<!-- Generator: Adobe Illustrator 24.0.1, SVG Export Plug-In . SVG Version: 6.00 Build 0)  -->
<svg version="1.1" id="Capa_1" xmlns="http://www.w3.org/2000/svg" xmlns:xlink="http://www.w3.org/1999/xlink" x="0px" y="0px"
	 viewBox="0 0 330 120" style="enable-background:new 0 0 330 120;" xml:space="preserve">
<style type="text/css">
	.st0{fill:#36EE00;}
	.st1{fill:#CB0000;}
	.st2{fill:#DADADA;}
	.st3{fill:#EDEDED;}
	.st4{fill:#FFFFFF;}
	.st5{fill:#C7FF00;}
	.st6{fill:#FFFFB3;}
	.st7{fill:#FF0000;}
	.st8{fill:#FF955F;}
	.st9{fill:#F6F6F6;stroke:#EDEDED;stroke-width:1.4;stroke-miterlimit:10;}
	.st10{fill:#F6F6F6;stroke:#F6F6F6;stroke-width:0.75;stroke-miterlimit:10;}
</style>
<g>
	<g>
		<path class="st0" d="M220.47,66.09l-1.88-3.14c0.42-0.25,1.33-0.76,2.19-1.23c0.65-0.36,1.27-0.7,1.62-0.9
			c0.84-0.49,1.57-0.9,2.22-1.26l1.79,3.19c-0.63,0.35-1.35,0.76-2.18,1.24c-0.36,0.21-1.01,0.57-1.68,0.94
			C221.74,65.38,220.87,65.85,220.47,66.09z"/>
		<path class="st0" d="M271.6,61.94l-1.22-3.45c4.49-1.59,8.89-3.46,11.07-4.52c5.99-2.93,12.07-5.99,18.05-9.09
			c7.04-3.65,14.12-7.45,21.06-11.3c1.18-0.65,1.81-1.96,1.54-3.18c-0.87-3.83-1.51-5.65-4.38-11.26l-0.46-0.9
			c-3.1-6.07-3.93-7.71-6.64-10.42l-0.09-0.09c-0.92-0.88-2.33-1.08-3.5-0.5c-6.76,3.32-13.59,6.75-20.29,10.21
			c-6.35,3.27-12.79,6.67-19.14,10.1c-3.39,1.83-10.47,6.33-14.94,10.02l-2.33-2.82c4.86-4.01,12.14-8.59,15.53-10.42
			c6.37-3.44,12.83-6.85,19.2-10.13c6.73-3.47,13.58-6.91,20.36-10.24c2.55-1.25,5.61-0.79,7.63,1.13l0.17,0.16
			c3.12,3.11,4.09,5.02,7.31,11.34l0.46,0.9c3,5.88,3.77,8.07,4.68,12.08c0.63,2.85-0.75,5.79-3.33,7.23
			c-6.97,3.87-14.09,7.68-21.15,11.35c-6,3.12-12.1,6.19-18.12,9.13C280.78,58.37,276.23,60.31,271.6,61.94z"/>
		<path class="st0" d="M226.23,74.4l-1.49-3.35c0.37-0.17,0.55-0.23,0.72-0.3c0.14-0.05,0.27-0.1,0.59-0.25
			c3.03-1.4,4.5-2.17,5.92-2.91c1.09-0.57,2.13-1.11,3.75-1.87l1.55,3.32c-1.55,0.73-2.55,1.25-3.61,1.8
			c-1.39,0.73-2.96,1.55-6.07,2.99c-0.47,0.22-0.66,0.29-0.85,0.36C226.62,74.24,226.49,74.28,226.23,74.4z"/>
		<path class="st1" d="M288.17,47.48l-7.6-2.42l2.82-8.71l-8.34-2.83l2.38-8l8.5,2.62l2.71-8.44l7.7,1.68l-2.61,8.97l8.75,2.61
			l-2.69,8.46l-8.81-2.8L288.17,47.48z M285.19,42.69l0.6,0.19l2.81-8.85l8.81,2.8l0.45-1.42l-8.67-2.59l2.53-8.7l-0.62-0.14
			l-2.8,8.71l-8.43-2.6l-0.32,1.08l8.42,2.86L285.19,42.69z"/>
		<path class="st2" d="M217.72,98.58c-2.51-2.68-3.56-4.87-3.19-6.7c0.24-1.19,1.03-1.93,1.68-2.23l0.24-0.11l0.27-0.04
			c5.31-0.71,10.61-2.38,11.22-3.54l0-0.04c-0.05-2.45-1.15-3.44-2.42-4.59c-1.41-1.27-3.35-3.01-2.31-6.48
			c0.78-2.59,0.44-3.02-0.48-4.17c-0.6-0.75-1.34-1.69-1.96-3.2c-0.26-0.63-0.71-0.77-2.14-0.9c-1.07-0.1-2.53-0.24-3.3-1.53
			c-0.75-1.26-0.24-2.76,0.2-3.78l0.08-0.17c0.85-1.51,1.53-2.68,2.06-3.6c1.34-2.32,1.57-2.7,1.5-3.22
			c-0.52-0.24-1.74-0.52-2.75-0.75c-2.36-0.54-5.59-1.28-8.7-3.02c-5.76-2.98-8.54-6.86-12.07-11.78l-0.25-0.36
			c-7.58-12.65-22.11-13.52-22.25-13.53l0.17-3.66c0.67,0.03,16.56,0.93,25.18,15.24l0.13,0.18c3.37,4.7,5.8,8.09,10.83,10.69
			c2.7,1.51,5.52,2.15,7.78,2.67c2.79,0.64,4.99,1.14,5.44,3.19c0.48,2.17,0.17,2.7-1.84,6.18c-0.52,0.89-1.17,2.02-1.99,3.48
			c-0.01,0.04-0.03,0.07-0.04,0.1c0.06,0.01,0.11,0.01,0.16,0.02c1.42,0.13,4.06,0.38,5.19,3.17c0.42,1.03,0.91,1.65,1.43,2.3
			c1.43,1.8,2.35,3.39,1.12,7.5c-0.36,1.21-0.09,1.5,1.25,2.71c1.49,1.35,3.54,3.19,3.63,7.19c0.28,4.4-7.84,6.36-13.39,7.19
			c0.17,0.5,0.68,1.49,2.18,3.09L217.72,98.58z"/>
		<path class="st2" d="M225.87,62.93l-1.96-3.09c1.1-0.7,1.38-2.22,1.75-4.65c0.1-0.66,0.2-1.34,0.34-2.03
			c-0.5-0.9-1.14-2.5-0.82-4.37c0.32-1.87,1.5-3.47,3.49-4.74c2.61-1.66,4-1.92,5.21-2.04c0.51-0.05,0.6-0.06,1.34-0.91
			c0.84-0.97,1.2-1.7,1.66-2.62c0.75-1.51,1.6-3.22,4.44-6.12l0.3-0.25c5.07-3.32,9.67,0.39,11.39,2.82l-2.99,2.12l1.49-1.06
			l-1.49,1.07c-0.3-0.42-2.99-3.95-6.25-1.98c-2.32,2.39-2.98,3.74-3.63,5.04c-0.5,1.02-1.02,2.07-2.17,3.39
			c-1.43,1.66-2.35,2.02-3.73,2.16c-0.68,0.07-1.52,0.16-3.61,1.49c-1.08,0.69-1.7,1.44-1.85,2.25c-0.22,1.18,0.6,2.3,0.61,2.31
			l0.5,0.68l-0.17,0.84c-0.19,0.84-0.32,1.7-0.45,2.53C228.86,58.47,228.43,61.3,225.87,62.93z"/>
		<path class="st2" d="M304.59,102.37l-3.14-1.89l1.57,0.95l-1.57-0.94c0.25-0.42,5.97-10.31-4.06-17.29l-0.12-0.09
			c-6.93-5.77-26.91-21.46-27.11-21.62l2.26-2.88c0.2,0.16,20.11,15.79,27.13,21.63C309.77,87.4,307.32,97.84,304.59,102.37z"/>
		<path class="st2" d="M267.45,88.26c-6.53-7.1-14.57-15.09-16.84-16.33c-0.34,0.18-0.71,0.45-1.1,0.73
			c-1.33,0.97-3.35,2.43-6.48,1.66c-2.19-0.55-3.75-2.12-5-3.38c-0.56-0.56-1.4-1.41-1.74-1.48l-0.08-3.66
			c1.83-0.06,3.15,1.27,4.42,2.56c1.03,1.04,2.09,2.11,3.28,2.4c1.41,0.35,2.15-0.12,3.44-1.07c0.73-0.53,1.57-1.14,2.61-1.44
			c1.12-0.32,3.21-0.93,20.18,17.53L267.45,88.26z"/>
		<path class="st3" d="M218.1,98.22c-2.39-2.55-3.39-4.59-3.06-6.24c0.26-1.29,1.2-1.77,1.39-1.86l0.17-0.08l0.19-0.03
			c6.58-0.88,11.77-2.92,11.67-4.02c-0.06-2.76-1.29-3.88-2.6-5.05c-1.38-1.24-3.1-2.79-2.16-5.95c0.86-2.85,0.41-3.41-0.57-4.64
			c-0.58-0.72-1.29-1.63-1.88-3.07c-0.38-0.92-1.11-1.09-2.58-1.23c-1.06-0.1-2.27-0.21-2.9-1.28c-0.62-1.04-0.2-2.31,0.23-3.3
			l0.06-0.12c0.85-1.51,1.53-2.68,2.06-3.6c1.64-2.83,1.71-2.95,1.52-3.82c-0.39-0.31-1.89-0.65-3.1-0.92
			c-2.33-0.53-5.51-1.26-8.56-2.96c-5.66-2.93-8.42-6.77-11.9-11.63l-0.23-0.33c-7.73-12.9-22.53-13.77-22.67-13.78l0.12-2.61
			c0.66,0.03,16.3,0.91,24.77,15l0.14,0.2c3.41,4.76,5.88,8.19,11.02,10.85c2.75,1.54,5.61,2.19,7.9,2.72
			c2.71,0.62,4.67,1.06,5.05,2.8c0.43,1.97,0.23,2.33-1.79,5.8c-0.52,0.9-1.18,2.04-2.01,3.51c-0.16,0.37-0.23,0.62-0.27,0.77
			c0.23,0.04,0.56,0.07,0.81,0.1c1.4,0.13,3.74,0.35,4.76,2.84c0.45,1.1,0.99,1.78,1.51,2.43c1.38,1.73,2.19,3.15,1.03,7.02
			c-0.44,1.49,0.01,2,1.4,3.25c1.43,1.29,3.39,3.05,3.46,6.86c0.35,4.21-8.95,6.05-13.47,6.69c-0.02,0.34,0.14,1.47,2.4,3.89
			L218.1,98.22z"/>
		<path class="st3" d="M225.59,62.48l-1.4-2.21c1.29-0.82,1.59-2.44,1.98-5.01c0.11-0.72,0.22-1.45,0.37-2.21
			c-0.46-0.79-1.17-2.37-0.86-4.18c0.3-1.72,1.39-3.2,3.26-4.38c2.72-1.73,4.08-1.87,4.98-1.97c0.62-0.06,0.81-0.08,1.68-1.09
			c0.88-1.02,1.27-1.81,1.73-2.73c0.73-1.47,1.56-3.15,4.35-5.99l0.22-0.18c4.74-3.11,9.06,0.4,10.68,2.68l-2.13,1.51l1.07-0.76
			l-1.06,0.76c-0.33-0.46-3.31-4.39-7-2.09c-2.41,2.48-3.1,3.87-3.77,5.21c-0.49,0.99-1,2.01-2.09,3.28
			c-1.44,1.67-2.28,1.87-3.39,1.98c-0.73,0.07-1.64,0.17-3.84,1.57c-1.21,0.77-1.91,1.65-2.08,2.6c-0.26,1.42,0.69,2.69,0.7,2.71
			l0.37,0.49l-0.13,0.6c-0.19,0.85-0.33,1.72-0.45,2.57C228.36,58.28,227.95,60.99,225.59,62.48z"/>
		<path class="st3" d="M304.15,102.1l-2.24-1.35l1.12,0.68l-1.12-0.67c0.26-0.43,6.23-10.72-4.21-17.99l-0.09-0.07
			c-6.94-5.77-26.92-21.47-27.12-21.63l1.62-2.06c0.2,0.16,20.13,15.81,27.14,21.64C309.16,87.6,306.79,97.72,304.15,102.1z"/>
		<path class="st3" d="M267.84,87.91c-7-7.61-15.22-15.74-17.22-16.56c-0.44,0.18-0.9,0.51-1.42,0.89
			c-1.33,0.97-3.15,2.29-6.04,1.57c-2.05-0.51-3.55-2.02-4.76-3.24c-0.73-0.73-1.6-1.67-2.09-1.63l-0.08-2.61
			c1.59-0.04,2.78,1.14,4.03,2.41c1.08,1.09,2.19,2.21,3.53,2.54c1.71,0.43,2.66-0.27,3.87-1.15c0.73-0.53,1.49-1.09,2.44-1.36
			c0.8-0.23,2.9-0.83,19.65,17.38L267.84,87.91z M250.48,71.3L250.48,71.3L250.48,71.3z"/>
		<path class="st4" d="M218.6,97.75c-2.2-2.34-3.17-4.24-2.89-5.65c0.2-0.98,0.92-1.33,1-1.37l0.17-0.05
			c5.2-0.69,12.44-2.62,12.26-4.75c-0.06-3.01-1.46-4.28-2.82-5.5c-1.37-1.23-2.78-2.5-1.96-5.25c0.96-3.19,0.34-3.97-0.69-5.26
			c-0.55-0.69-1.23-1.55-1.79-2.9c-0.57-1.41-1.88-1.53-3.15-1.65c-0.99-0.09-1.92-0.18-2.37-0.94c-0.36-0.61-0.28-1.44,0.27-2.68
			c0.88-1.57,1.55-2.73,2.08-3.65c1.84-3.18,1.84-3.18,1.57-4.42c-0.12-0.53-1.88-0.94-3.59-1.33c-2.29-0.52-5.42-1.24-8.38-2.89
			c-5.53-2.86-8.25-6.64-11.68-11.43l-0.17-0.24c-7.96-13.27-23.1-14.14-23.25-14.15l0.06-1.25c0.16,0.01,15.96,0.9,24.24,14.72
			l0.14,0.2c3.34,4.65,5.97,8.33,11.26,11.06c2.82,1.58,5.73,2.24,8.06,2.77c2.56,0.58,4.25,0.97,4.54,2.28
			c0.38,1.71,0.26,1.92-1.71,5.32c-0.53,0.91-1.2,2.07-2.05,3.58c-0.46,1.07-0.35,1.41-0.31,1.48c0.13,0.21,0.84,0.28,1.41,0.33
			c1.41,0.13,3.33,0.31,4.19,2.42c0.48,1.19,1.08,1.94,1.61,2.6c1.28,1.6,2,2.77,0.91,6.4c-0.59,1.98,0.28,2.76,1.6,3.95
			c1.41,1.27,3.17,2.85,3.23,6.37c0.33,3.96-10.66,5.7-13.22,6.05c-0.07,0.06-0.2,0.2-0.25,0.48c-0.09,0.56,0.12,1.88,2.58,4.51
			L218.6,97.75z"/>
		<path class="st4" d="M225.23,61.91l-0.67-1.06c1.61-1.02,1.93-3.09,2.29-5.49c0.12-0.79,0.24-1.6,0.42-2.43
			c-0.38-0.59-1.22-2.13-0.91-3.95c0.26-1.52,1.26-2.84,2.95-3.93c2.59-1.65,3.8-1.77,4.68-1.86c0.72-0.07,1.08-0.11,2.12-1.32
			c0.94-1.09,1.35-1.91,1.82-2.87c0.71-1.43,1.51-3.05,4.22-5.82l0.1-0.08c4.31-2.83,8.26,0.41,9.75,2.51L251,36.34
			c-0.15-0.21-3.65-5.01-7.99-2.22c-2.53,2.59-3.25,4.04-3.95,5.44c-0.49,0.99-0.96,1.93-2,3.14c-1.31,1.51-1.97,1.65-2.95,1.75
			c-0.76,0.08-1.8,0.18-4.14,1.67c-1.38,0.88-2.19,1.91-2.39,3.07c-0.3,1.72,0.82,3.21,0.83,3.23l0.18,0.23l-0.06,0.29
			c-0.2,0.88-0.33,1.76-0.46,2.61C227.69,58.14,227.32,60.58,225.23,61.91z"/>
		<path class="st4" d="M303.56,101.75l-1.08-0.65c0.27-0.46,6.57-11.25-4.4-18.9c-6.99-5.81-26.98-21.51-27.18-21.67l0.77-0.99
			c0.2,0.16,20.2,15.87,27.17,21.66C310.75,89.5,303.64,101.63,303.56,101.75z"/>
		<path class="st4" d="M268.34,87.45c-7.56-8.22-16.27-16.76-17.75-16.82l0,0c-0.57,0.17-1.16,0.6-1.79,1.06
			c-1.29,0.94-2.9,2.1-5.48,1.46c-1.86-0.46-3.23-1.84-4.44-3.06c-0.95-0.96-1.84-1.88-2.6-1.83L236.25,67
			c1.32-0.05,2.38,1.05,3.53,2.21c1.09,1.1,2.32,2.35,3.85,2.72c2.02,0.5,3.19-0.35,4.44-1.26c0.69-0.5,1.4-1.02,2.23-1.26
			c2.19-0.61,12.82,10.5,18.97,17.18L268.34,87.45z"/>
		<path class="st5" d="M222.6,64.29c0,0,0.1-0.07,0.19-0.23l-2.26-1.31c0.28-0.49,0.76-0.74,1.43-1.09
			c0.22-0.11,0.46-0.24,0.71-0.39c0.84-0.49,1.57-0.9,2.21-1.26l1.28,2.28c-0.63,0.36-1.35,0.76-2.18,1.24
			c-0.28,0.16-0.56,0.31-0.8,0.44C222.96,64.08,222.68,64.23,222.6,64.29z"/>
		<path class="st5" d="M271.42,61.45l-0.87-2.47c4.51-1.59,8.93-3.47,11.12-4.54c6-2.93,12.07-6,18.06-9.1
			c7.04-3.65,14.13-7.46,21.08-11.31c1.38-0.76,2.12-2.3,1.8-3.75c-0.87-3.82-1.55-5.77-4.42-11.39l-0.46-0.9
			c-3.13-6.13-3.97-7.78-6.74-10.55l-0.1-0.1c-1.08-1.03-2.72-1.26-4.09-0.59c-6.76,3.32-13.59,6.75-20.3,10.21
			c-6.35,3.27-12.79,6.67-19.15,10.1c-3.41,1.84-10.53,6.37-15.02,10.07l-1.66-2.02c4.62-3.81,11.94-8.47,15.44-10.36
			c6.37-3.44,12.82-6.84,19.19-10.12c6.72-3.47,13.57-6.91,20.35-10.23c2.35-1.15,5.18-0.74,7.04,1.04l0.16,0.15
			c3.06,3.06,4.02,4.95,7.22,11.2l0.46,0.9c3,5.87,3.72,7.93,4.63,11.96c0.58,2.62-0.69,5.33-3.07,6.65
			C315.11,40.18,308,44,300.94,47.66c-6,3.11-12.09,6.18-18.11,9.13C280.57,57.89,276.03,59.82,271.42,61.45z"/>
		<path class="st5" d="M227.83,73.05l-1.06-2.39c0.36-0.16,0.53-0.22,0.69-0.28c0.15-0.05,0.28-0.11,0.63-0.27
			c3.01-1.39,3.93-1.9,4.82-2.38c0.72-0.39,1.39-0.76,3.03-1.53l1.11,2.37c-1.56,0.73-2.21,1.08-2.89,1.45
			c-0.88,0.48-1.89,1.03-4.98,2.46c-0.45,0.21-0.63,0.27-0.82,0.34C228.24,72.88,228.11,72.93,227.83,73.05z"/>
		<path class="st6" d="M222.11,63.85l-0.64-1.08l0.59-0.36c0.25-0.15,0.43-0.27,0.95-0.56c0.84-0.48,1.56-0.9,2.2-1.25l0.61,1.1
			c-0.64,0.36-1.36,0.77-2.19,1.25c-0.5,0.29-0.68,0.4-0.92,0.55L222.11,63.85z"/>
		<path class="st6" d="M271.2,60.81l-0.42-1.18c4.54-1.6,8.99-3.49,11.2-4.58c6-2.94,12.08-6,18.07-9.11
			c7.05-3.66,14.14-7.46,21.09-11.32c1.64-0.91,2.52-2.75,2.13-4.49c-0.89-3.89-1.58-5.87-4.48-11.55l-0.46-0.9
			c-3.17-6.21-4.02-7.88-6.86-10.72l-0.12-0.11c-1.28-1.22-3.23-1.5-4.86-0.7c-6.77,3.32-13.6,6.76-20.31,10.22
			c-6.35,3.28-12.8,6.68-19.16,10.11c-3.44,1.86-10.61,6.41-15.13,10.15l-0.8-0.97c4.59-3.79,11.85-8.41,15.33-10.29
			c6.36-3.43,12.82-6.84,19.18-10.12c6.72-3.46,13.56-6.91,20.33-10.23c2.09-1.03,4.61-0.66,6.27,0.92l0.14,0.14
			c2.98,2.98,3.94,4.85,7.09,11.04l0.46,0.9c2.96,5.8,3.67,7.83,4.57,11.8c0.51,2.32-0.62,4.73-2.74,5.91
			c-6.96,3.86-14.07,7.67-21.12,11.33c-6,3.11-12.08,6.18-18.1,9.12C280.29,57.27,275.78,59.19,271.2,60.81z"/>
		<path class="st6" d="M227.63,72.42l-0.51-1.15c0.16-0.07,0.24-0.11,0.28-0.13c0.07-0.04,0.19-0.1,0.44-0.21
			c3.05-1.41,4.14-1.99,5.2-2.54c0.81-0.43,1.58-0.83,3.18-1.58l0.53,1.14c-1.58,0.74-2.33,1.13-3.13,1.55
			c-1.02,0.53-2.17,1.14-5.25,2.57c-0.17,0.08-0.26,0.12-0.31,0.14C228.01,72.26,227.91,72.3,227.63,72.42z"/>
		<path class="st7" d="M287.83,46.82l-6.6-2.1l2.9-8.83l-8.43-2.68l2.09-7.04l8.49,2.62l2.72-8.48l6.69,1.46l-2.6,8.93l8.74,2.61
			l-2.37,7.46l-8.81-2.8L287.83,46.82z M284.53,43.03l1.59,0.51l2.81-8.85l8.81,2.8l0.77-2.43l-8.68-2.59l2.55-8.74l-1.63-0.36
			l-2.78,8.68l-8.44-2.6l-0.61,2.04l8.5,2.7L284.53,43.03z"/>
		<path class="st8" d="M287.38,45.96l-5.3-1.68l2.9-8.83l-8.45-2.69l1.71-5.74l8.48,2.61l2.74-8.53l5.37,1.18l-2.59,8.88l8.72,2.6
			l-1.95,6.15l-8.81-2.8L287.38,45.96z M283.67,43.47l2.9,0.92l2.81-8.85l8.81,2.8l1.19-3.74l-8.69-2.59l2.56-8.78l-2.95-0.64
			l-2.77,8.62l-8.45-2.6l-0.99,3.34l8.48,2.69L283.67,43.47z"/>
	</g>
	<g>
		<path class="st9" d="M7.61,113.38c-0.82-0.51-1.24-1.22-1.24-2.13c1.25-1.25,1.87-4.57,1.87-9.97c0-3.24-0.26-7.95-0.77-14.15
			c-0.57-5.91-0.85-10.57-0.85-13.98l0.17-4.69c0.06-1.36,0.09-2.93,0.09-4.69c0-1.59-0.28-3.61-0.85-6.05
			c-0.68-2.56-1.02-4.35-1.02-5.37c0-1.99,2.19-2.98,6.56-2.98h1.28c3.07,0,5.74,0.94,8.01,2.81c1.82,1.59,3.35,3.89,4.6,6.9
			c0.85,2.05,1.59,4.89,2.22,8.52c0.34,3.18,0.51,5.68,0.51,7.5v2.73v4.01c-0.11,0.23-0.17,0.46-0.17,0.68
			c0,0.46,0.03,0.8,0.08,1.02c0.06,0.23,0.09,0.51,0.09,0.85c0,1.82-0.27,3.99-0.81,6.52c-0.54,2.53-1.32,5.1-2.34,7.71
			c-2.56,6.25-5.43,10.68-8.61,13.3c-1.87,1.48-3.84,2.22-5.88,2.22C9.41,114.15,8.43,113.89,7.61,113.38z M17.88,103.54
			c1.59-2.47,2.81-5.21,3.66-8.23c1.53-5.57,2.3-11.19,2.3-16.88c0-3.07-0.28-6.42-0.85-10.06c-0.63-3.52-1.96-6.7-4.01-9.55
			c-0.97-1.36-2.19-2.43-3.66-3.2c-1.48-0.77-3.15-1.15-5.03-1.15v0.09c0,5.11,0.34,12.84,1.02,23.18
			c0.68,10.29,1.02,18.07,1.02,23.35v8.1C14.44,107.9,16.29,106.01,17.88,103.54z"/>
		<path class="st9" d="M51.12,112.53v-0.26c-0.17-3.01-0.68-6.36-1.53-10.06c-0.85-3.69-2.1-8.15-3.75-13.38
			c-1.25-3.92-2.3-7.44-3.15-10.57v33.58c0,0.91-0.16,1.58-0.47,2c-0.31,0.43-0.92,0.64-1.83,0.64c-0.68,0-1.22-0.21-1.62-0.64
			c-0.4-0.43-0.6-0.98-0.6-1.66v-0.68l0.17-25.06c0.11-7.39,0.17-15.71,0.17-24.97V50.99c0-0.68,0.14-1.15,0.43-1.41
			c0.28-0.26,0.88-0.38,1.79-0.38c1.42,0,2.73,0.27,3.92,0.81c1.19,0.54,2.22,1.29,3.07,2.26c1.76,1.99,2.9,4.38,3.41,7.16
			c0.23,1.14,0.34,2.44,0.34,3.92c0,0.85-0.07,1.79-0.21,2.81c-0.14,1.02-0.24,1.68-0.3,1.96c-0.12,0.57-0.37,1.42-0.77,2.56
			c-0.4,1.14-0.65,1.87-0.77,2.22l-1.02,2.39l-0.85,2.22c0.06,2.05,0.41,4.63,1.06,7.76c0.65,3.13,1.38,6.02,2.17,8.69
			c0.57,1.87,1.59,5,3.07,9.38l2.47,7.5v0.17c0,0.97-0.09,1.79-0.26,2.47c-0.17,0.91-0.77,1.36-1.79,1.36
			C53.19,114.83,52.14,114.06,51.12,112.53z M45.41,71.1l1.28-7.33c0.06-0.28,0.09-0.68,0.09-1.19c0-1.65-0.31-3.55-0.94-5.71
			c-0.34-1.02-0.78-1.89-1.32-2.6c-0.54-0.71-1.09-1.09-1.66-1.15l-0.17,8.52c-0.17,3.81-0.26,6.76-0.26,8.86
			c0,1.99,0.03,3.3,0.09,3.92C43.31,73.63,44.27,72.53,45.41,71.1z"/>
		<path class="st9" d="M69.61,110.91c-2.22-3.12-3.78-6.96-4.69-11.51c-1.02-4.83-1.68-10-1.96-15.51c-0.28-5-0.43-10.43-0.43-16.28
			v-7.08c0.06-1.99,0.09-4.09,0.09-6.31c-0.46-0.45-0.68-1.02-0.68-1.71c0-0.68,0.26-1.29,0.77-1.83c0.51-0.54,1.08-0.81,1.7-0.81
			c2.05,0,3.07,2.02,3.07,6.05c0,2.61,0.14,7.56,0.43,14.83c0.28,7.27,0.43,12.22,0.43,14.83c0.28,0.74,0.55,2.22,0.81,4.43
			c0.26,2.22,0.38,4.03,0.38,5.46c0,1.25,0.2,2.8,0.6,4.65c0.4,1.85,0.97,3.71,1.7,5.58c0.74,1.99,1.71,3.62,2.9,4.9
			c1.19,1.28,2.44,1.92,3.75,1.92c0.8,0,1.46-0.26,2-0.77c0.54-0.51,0.9-1.25,1.07-2.22c0.34-1.59,0.51-3.15,0.51-4.69V88.24
			c0-2.1-0.2-4.77-0.6-8.01c-0.34-3.58-0.51-6.28-0.51-8.1v-0.6c0-0.91-0.03-1.73-0.09-2.47l-0.09-2.47c0-1.59-0.09-4.01-0.26-7.24
			c-0.23-2.9-0.34-5.34-0.34-7.33c0-0.62,0.33-1.16,0.98-1.62c0.65-0.45,1.38-0.68,2.17-0.68l2.13,1.96v1.45
			c0,0.68-0.12,1.51-0.34,2.47c-0.23,1.59-0.34,2.5-0.34,2.73c0,5.17,0.28,12.3,0.85,21.39c0.51,9.55,0.77,16.96,0.77,22.25
			c0,2.84-0.28,5.34-0.85,7.5c-0.34,1.31-0.81,2.36-1.41,3.15c-0.6,0.8-1.41,1.48-2.43,2.05c-0.97,0.57-2.22,0.85-3.75,0.85
			C74.44,115.51,71.66,113.98,69.61,110.91z"/>
		<path class="st9" d="M111.38,97.7c-3.98-13.69-7.42-26.28-10.31-37.76V87.9c0,2.39,0.23,6.45,0.68,12.19
			c0.4,6.25,0.6,10.28,0.6,12.1c0,0.51-0.31,0.95-0.94,1.32c-0.63,0.37-1.34,0.55-2.13,0.55c-1.19,0-1.79-0.45-1.79-1.36l0.17-2.47
			c0.11-1.82,0.17-3.01,0.17-3.58c0-3.01-0.17-7.78-0.51-14.32c-0.34-6.65-0.51-10.68-0.51-12.1V69.31c0-1.76,0.09-4.38,0.26-7.84
			c0.23-3.01,0.34-5.63,0.34-7.84v-0.51c0-2.84,0.63-4.26,1.87-4.26c0.74,0,1.68,1.25,2.81,3.75c1.87,4.09,4.26,11.42,7.16,21.99
			c1.65,6.14,3.58,14.04,5.8,23.7c-0.06-0.23,0.4,1.73,1.36,5.88l0.09,0.43c0-5.51,0.06-10.45,0.17-14.83l0.17-14.83V49.71
			c0.23-1.42,1.14-2.13,2.73-2.13c1.53,0,2.3,1.11,2.3,3.32v0.51c-0.34,0.68-0.51,1.51-0.51,2.47c0,3.47-0.09,8.69-0.26,15.68
			c-0.17,7.05-0.26,12.33-0.26,15.85v26c0,0.91-0.24,1.78-0.72,2.6c-0.48,0.82-1.06,1.24-1.75,1.24
			C117.23,115.26,114.9,109.4,111.38,97.7z"/>
		<path class="st9" d="M151.44,115.77c-0.28-0.06-0.6-0.09-0.94-0.09c-1.53-8.69-3.07-15.97-4.6-21.82
			c-1.53-5.85-3.47-11.36-5.8-16.54l-1.79,3.32c-0.51,0.97-0.8,1.82-0.85,2.56c-0.17,1.71-0.26,2.96-0.26,3.75
			c0,1.7,0.09,4.32,0.26,7.84c0.17,3.47,0.26,6.11,0.26,7.93v6.99c0,3.01-0.97,4.52-2.9,4.52c-1.65,0-2.47-1.59-2.47-4.77
			c0-2.5,0.17-6.34,0.51-11.51c0.4-4.77,0.6-8.58,0.6-11.42l0.09-7.33v-8.86c0-3.12-0.2-6.39-0.6-9.8c-0.4-3.52-0.6-6.19-0.6-8.01
			c0-0.74,0.23-1.36,0.68-1.87s1.02-0.77,1.71-0.77c2.1,0,3.15,2.3,3.15,6.9l-0.34,17.47l1.62-4.18c1.87-4.77,3.81-9.49,5.8-14.15
			c1.14-2.56,2.16-4.57,3.07-6.05c0.97-1.53,1.73-2.3,2.3-2.3c0.63,0,1.18,0.21,1.66,0.64c0.48,0.43,0.72,0.95,0.72,1.58
			c0,0.57-1.53,4.09-4.6,10.57c-3.01,6.19-4.77,10.31-5.28,12.36v1.53c0.85,2.16,3.12,9.08,6.82,20.75
			c3.69,11.68,5.54,17.86,5.54,18.54c0,0.68-0.27,1.25-0.81,1.7c-0.54,0.45-1.18,0.68-1.92,0.68
			C152.12,115.94,151.78,115.88,151.44,115.77z"/>
		<path class="st9" d="M162.34,114.74c-0.91-0.51-1.36-1.11-1.36-1.79s0.17-1.24,0.51-1.66c0.34-0.43,0.82-0.64,1.45-0.64
			c0.57,0,1.39,0.23,2.47,0.68c1.19,0.46,1.93,0.68,2.22,0.68c1.08,0,2.06-0.47,2.94-1.41c0.88-0.94,1.58-2.17,2.09-3.71
			c1.02-2.84,1.53-5.4,1.53-7.67c0-2.44-0.38-5.01-1.15-7.71c-0.77-2.7-1.8-5.33-3.11-7.88l-1.36-2.73
			c-1.42-2.84-2.52-5.08-3.28-6.73c-0.77-1.65-1.44-3.44-2-5.37c-0.85-2.73-1.28-5.37-1.28-7.93c0-2.05,0.35-3.98,1.07-5.8
			c0.71-1.82,1.77-3.35,3.2-4.6c1.42-1.36,3.18-2.05,5.28-2.05c1.02,0,2.02,0.3,2.98,0.9c0.96,0.6,1.65,1.35,2.05,2.26l-1.45,1.79
			c-1.48,0-2.59-0.28-3.32-0.85c-1.02,0.12-1.92,0.61-2.68,1.49c-0.77,0.88-1.35,1.89-1.75,3.03c-0.34,1.08-0.51,2.16-0.51,3.24
			c0,2.16,0.3,4.36,0.9,6.61c0.6,2.25,1.38,4.36,2.34,6.35l5.97,11.93c0.97,2.05,1.73,4.35,2.3,6.9c0.57,2.56,0.85,5.11,0.85,7.67
			c0,3.75-0.91,7.27-2.73,10.57c-0.97,1.7-2.22,3.05-3.75,4.05c-1.53,0.99-3.24,1.49-5.11,1.49
			C165.58,115.85,163.82,115.48,162.34,114.74z"/>
		<g>
			<path class="st10" d="M7.61,113.38c-0.82-0.51-1.24-1.22-1.24-2.13c1.25-1.25,1.87-4.57,1.87-9.97c0-3.24-0.26-7.95-0.77-14.15
				c-0.57-5.91-0.85-10.57-0.85-13.98l0.17-4.69c0.06-1.36,0.09-2.93,0.09-4.69c0-1.59-0.28-3.61-0.85-6.05
				c-0.68-2.56-1.02-4.35-1.02-5.37c0-1.99,2.19-2.98,6.56-2.98h1.28c3.07,0,5.74,0.94,8.01,2.81c1.82,1.59,3.35,3.89,4.6,6.9
				c0.85,2.05,1.59,4.89,2.22,8.52c0.34,3.18,0.51,5.68,0.51,7.5v2.73v4.01c-0.11,0.23-0.17,0.46-0.17,0.68
				c0,0.46,0.03,0.8,0.08,1.02c0.06,0.23,0.09,0.51,0.09,0.85c0,1.82-0.27,3.99-0.81,6.52c-0.54,2.53-1.32,5.1-2.34,7.71
				c-2.56,6.25-5.43,10.68-8.61,13.3c-1.87,1.48-3.84,2.22-5.88,2.22C9.41,114.15,8.43,113.89,7.61,113.38z M17.88,103.54
				c1.59-2.47,2.81-5.21,3.66-8.23c1.53-5.57,2.3-11.19,2.3-16.88c0-3.07-0.28-6.42-0.85-10.06c-0.63-3.52-1.96-6.7-4.01-9.55
				c-0.97-1.36-2.19-2.43-3.66-3.2c-1.48-0.77-3.15-1.15-5.03-1.15v0.09c0,5.11,0.34,12.84,1.02,23.18
				c0.68,10.29,1.02,18.07,1.02,23.35v8.1C14.44,107.9,16.29,106.01,17.88,103.54z"/>
			<path class="st10" d="M51.12,112.53v-0.26c-0.17-3.01-0.68-6.36-1.53-10.06c-0.85-3.69-2.1-8.15-3.75-13.38
				c-1.25-3.92-2.3-7.44-3.15-10.57v33.58c0,0.91-0.16,1.58-0.47,2c-0.31,0.43-0.92,0.64-1.83,0.64c-0.68,0-1.22-0.21-1.62-0.64
				c-0.4-0.43-0.6-0.98-0.6-1.66v-0.68l0.17-25.06c0.11-7.39,0.17-15.71,0.17-24.97V50.99c0-0.68,0.14-1.15,0.43-1.41
				c0.28-0.26,0.88-0.38,1.79-0.38c1.42,0,2.73,0.27,3.92,0.81c1.19,0.54,2.22,1.29,3.07,2.26c1.76,1.99,2.9,4.38,3.41,7.16
				c0.23,1.14,0.34,2.44,0.34,3.92c0,0.85-0.07,1.79-0.21,2.81c-0.14,1.02-0.24,1.68-0.3,1.96c-0.12,0.57-0.37,1.42-0.77,2.56
				c-0.4,1.14-0.65,1.87-0.77,2.22l-1.02,2.39l-0.85,2.22c0.06,2.05,0.41,4.63,1.06,7.76c0.65,3.13,1.38,6.02,2.17,8.69
				c0.57,1.87,1.59,5,3.07,9.38l2.47,7.5v0.17c0,0.97-0.09,1.79-0.26,2.47c-0.17,0.91-0.77,1.36-1.79,1.36
				C53.19,114.83,52.14,114.06,51.12,112.53z M45.41,71.1l1.28-7.33c0.06-0.28,0.09-0.68,0.09-1.19c0-1.65-0.31-3.55-0.94-5.71
				c-0.34-1.02-0.78-1.89-1.32-2.6c-0.54-0.71-1.09-1.09-1.66-1.15l-0.17,8.52c-0.17,3.81-0.26,6.76-0.26,8.86
				c0,1.99,0.03,3.3,0.09,3.92C43.31,73.63,44.27,72.53,45.41,71.1z"/>
			<path class="st10" d="M69.61,110.91c-2.22-3.12-3.78-6.96-4.69-11.51c-1.02-4.83-1.68-10-1.96-15.51
				c-0.28-5-0.43-10.43-0.43-16.28v-7.08c0.06-1.99,0.09-4.09,0.09-6.31c-0.46-0.45-0.68-1.02-0.68-1.71c0-0.68,0.26-1.29,0.77-1.83
				c0.51-0.54,1.08-0.81,1.7-0.81c2.05,0,3.07,2.02,3.07,6.05c0,2.61,0.14,7.56,0.43,14.83c0.28,7.27,0.43,12.22,0.43,14.83
				c0.28,0.74,0.55,2.22,0.81,4.43c0.26,2.22,0.38,4.03,0.38,5.46c0,1.25,0.2,2.8,0.6,4.65c0.4,1.85,0.97,3.71,1.7,5.58
				c0.74,1.99,1.71,3.62,2.9,4.9c1.19,1.28,2.44,1.92,3.75,1.92c0.8,0,1.46-0.26,2-0.77c0.54-0.51,0.9-1.25,1.07-2.22
				c0.34-1.59,0.51-3.15,0.51-4.69V88.24c0-2.1-0.2-4.77-0.6-8.01c-0.34-3.58-0.51-6.28-0.51-8.1v-0.6c0-0.91-0.03-1.73-0.09-2.47
				l-0.09-2.47c0-1.59-0.09-4.01-0.26-7.24c-0.23-2.9-0.34-5.34-0.34-7.33c0-0.62,0.33-1.16,0.98-1.62
				c0.65-0.45,1.38-0.68,2.17-0.68l2.13,1.96v1.45c0,0.68-0.12,1.51-0.34,2.47c-0.23,1.59-0.34,2.5-0.34,2.73
				c0,5.17,0.28,12.3,0.85,21.39c0.51,9.55,0.77,16.96,0.77,22.25c0,2.84-0.28,5.34-0.85,7.5c-0.34,1.31-0.81,2.36-1.41,3.15
				c-0.6,0.8-1.41,1.48-2.43,2.05c-0.97,0.57-2.22,0.85-3.75,0.85C74.44,115.51,71.66,113.98,69.61,110.91z"/>
			<path class="st10" d="M111.38,97.7c-3.98-13.69-7.42-26.28-10.31-37.76V87.9c0,2.39,0.23,6.45,0.68,12.19
				c0.4,6.25,0.6,10.28,0.6,12.1c0,0.51-0.31,0.95-0.94,1.32c-0.63,0.37-1.34,0.55-2.13,0.55c-1.19,0-1.79-0.45-1.79-1.36l0.17-2.47
				c0.11-1.82,0.17-3.01,0.17-3.58c0-3.01-0.17-7.78-0.51-14.32c-0.34-6.65-0.51-10.68-0.51-12.1V69.31c0-1.76,0.09-4.38,0.26-7.84
				c0.23-3.01,0.34-5.63,0.34-7.84v-0.51c0-2.84,0.63-4.26,1.87-4.26c0.74,0,1.68,1.25,2.81,3.75c1.87,4.09,4.26,11.42,7.16,21.99
				c1.65,6.14,3.58,14.04,5.8,23.7c-0.06-0.23,0.4,1.73,1.36,5.88l0.09,0.43c0-5.51,0.06-10.45,0.17-14.83l0.17-14.83V49.71
				c0.23-1.42,1.14-2.13,2.73-2.13c1.53,0,2.3,1.11,2.3,3.32v0.51c-0.34,0.68-0.51,1.51-0.51,2.47c0,3.47-0.09,8.69-0.26,15.68
				c-0.17,7.05-0.26,12.33-0.26,15.85v26c0,0.91-0.24,1.78-0.72,2.6c-0.48,0.82-1.06,1.24-1.75,1.24
				C117.23,115.26,114.9,109.4,111.38,97.7z"/>
			<path class="st10" d="M151.44,115.77c-0.28-0.06-0.6-0.09-0.94-0.09c-1.53-8.69-3.07-15.97-4.6-21.82
				c-1.53-5.85-3.47-11.36-5.8-16.54l-1.79,3.32c-0.51,0.97-0.8,1.82-0.85,2.56c-0.17,1.71-0.26,2.96-0.26,3.75
				c0,1.7,0.09,4.32,0.26,7.84c0.17,3.47,0.26,6.11,0.26,7.93v6.99c0,3.01-0.97,4.52-2.9,4.52c-1.65,0-2.47-1.59-2.47-4.77
				c0-2.5,0.17-6.34,0.51-11.51c0.4-4.77,0.6-8.58,0.6-11.42l0.09-7.33v-8.86c0-3.12-0.2-6.39-0.6-9.8c-0.4-3.52-0.6-6.19-0.6-8.01
				c0-0.74,0.23-1.36,0.68-1.87s1.02-0.77,1.71-0.77c2.1,0,3.15,2.3,3.15,6.9l-0.34,17.47l1.62-4.18c1.87-4.77,3.81-9.49,5.8-14.15
				c1.14-2.56,2.16-4.57,3.07-6.05c0.97-1.53,1.73-2.3,2.3-2.3c0.63,0,1.18,0.21,1.66,0.64c0.48,0.43,0.72,0.95,0.72,1.58
				c0,0.57-1.53,4.09-4.6,10.57c-3.01,6.19-4.77,10.31-5.28,12.36v1.53c0.85,2.16,3.12,9.08,6.82,20.75
				c3.69,11.68,5.54,17.86,5.54,18.54c0,0.68-0.27,1.25-0.81,1.7c-0.54,0.45-1.18,0.68-1.92,0.68
				C152.12,115.94,151.78,115.88,151.44,115.77z"/>
			<path class="st10" d="M162.34,114.74c-0.91-0.51-1.36-1.11-1.36-1.79s0.17-1.24,0.51-1.66c0.34-0.43,0.82-0.64,1.45-0.64
				c0.57,0,1.39,0.23,2.47,0.68c1.19,0.46,1.93,0.68,2.22,0.68c1.08,0,2.06-0.47,2.94-1.41c0.88-0.94,1.58-2.17,2.09-3.71
				c1.02-2.84,1.53-5.4,1.53-7.67c0-2.44-0.38-5.01-1.15-7.71c-0.77-2.7-1.8-5.33-3.11-7.88l-1.36-2.73
				c-1.42-2.84-2.52-5.08-3.28-6.73c-0.77-1.65-1.44-3.44-2-5.37c-0.85-2.73-1.28-5.37-1.28-7.93c0-2.05,0.35-3.98,1.07-5.8
				c0.71-1.82,1.77-3.35,3.2-4.6c1.42-1.36,3.18-2.05,5.28-2.05c1.02,0,2.02,0.3,2.98,0.9c0.96,0.6,1.65,1.35,2.05,2.26l-1.45,1.79
				c-1.48,0-2.59-0.28-3.32-0.85c-1.02,0.12-1.92,0.61-2.68,1.49c-0.77,0.88-1.35,1.89-1.75,3.03c-0.34,1.08-0.51,2.16-0.51,3.24
				c0,2.16,0.3,4.36,0.9,6.61c0.6,2.25,1.38,4.36,2.34,6.35l5.97,11.93c0.97,2.05,1.73,4.35,2.3,6.9c0.57,2.56,0.85,5.11,0.85,7.67
				c0,3.75-0.91,7.27-2.73,10.57c-0.97,1.7-2.22,3.05-3.75,4.05c-1.53,0.99-3.24,1.49-5.11,1.49
				C165.58,115.85,163.82,115.48,162.34,114.74z"/>
			<g>
				<path class="st4" d="M7.61,113.38c-0.82-0.51-1.24-1.22-1.24-2.13c1.25-1.25,1.87-4.57,1.87-9.97c0-3.24-0.26-7.95-0.77-14.15
					c-0.57-5.91-0.85-10.57-0.85-13.98l0.17-4.69c0.06-1.36,0.09-2.93,0.09-4.69c0-1.59-0.28-3.61-0.85-6.05
					c-0.68-2.56-1.02-4.35-1.02-5.37c0-1.99,2.19-2.98,6.56-2.98h1.28c3.07,0,5.74,0.94,8.01,2.81c1.82,1.59,3.35,3.89,4.6,6.9
					c0.85,2.05,1.59,4.89,2.22,8.52c0.34,3.18,0.51,5.68,0.51,7.5v2.73v4.01c-0.11,0.23-0.17,0.46-0.17,0.68
					c0,0.46,0.03,0.8,0.08,1.02c0.06,0.23,0.09,0.51,0.09,0.85c0,1.82-0.27,3.99-0.81,6.52c-0.54,2.53-1.32,5.1-2.34,7.71
					c-2.56,6.25-5.43,10.68-8.61,13.3c-1.87,1.48-3.84,2.22-5.88,2.22C9.41,114.15,8.43,113.89,7.61,113.38z M17.88,103.54
					c1.59-2.47,2.81-5.21,3.66-8.23c1.53-5.57,2.3-11.19,2.3-16.88c0-3.07-0.28-6.42-0.85-10.06c-0.63-3.52-1.96-6.7-4.01-9.55
					c-0.97-1.36-2.19-2.43-3.66-3.2c-1.48-0.77-3.15-1.15-5.03-1.15v0.09c0,5.11,0.34,12.84,1.02,23.18
					c0.68,10.29,1.02,18.07,1.02,23.35v8.1C14.44,107.9,16.29,106.01,17.88,103.54z"/>
				<path class="st4" d="M51.12,112.53v-0.26c-0.17-3.01-0.68-6.36-1.53-10.06c-0.85-3.69-2.1-8.15-3.75-13.38
					c-1.25-3.92-2.3-7.44-3.15-10.57v33.58c0,0.91-0.16,1.58-0.47,2c-0.31,0.43-0.92,0.64-1.83,0.64c-0.68,0-1.22-0.21-1.62-0.64
					c-0.4-0.43-0.6-0.98-0.6-1.66v-0.68l0.17-25.06c0.11-7.39,0.17-15.71,0.17-24.97V50.99c0-0.68,0.14-1.15,0.43-1.41
					c0.28-0.26,0.88-0.38,1.79-0.38c1.42,0,2.73,0.27,3.92,0.81c1.19,0.54,2.22,1.29,3.07,2.26c1.76,1.99,2.9,4.38,3.41,7.16
					c0.23,1.14,0.34,2.44,0.34,3.92c0,0.85-0.07,1.79-0.21,2.81c-0.14,1.02-0.24,1.68-0.3,1.96c-0.12,0.57-0.37,1.42-0.77,2.56
					c-0.4,1.14-0.65,1.87-0.77,2.22l-1.02,2.39l-0.85,2.22c0.06,2.05,0.41,4.63,1.06,7.76c0.65,3.13,1.38,6.02,2.17,8.69
					c0.57,1.87,1.59,5,3.07,9.38l2.47,7.5v0.17c0,0.97-0.09,1.79-0.26,2.47c-0.17,0.91-0.77,1.36-1.79,1.36
					C53.19,114.83,52.14,114.06,51.12,112.53z M45.41,71.1l1.28-7.33c0.06-0.28,0.09-0.68,0.09-1.19c0-1.65-0.31-3.55-0.94-5.71
					c-0.34-1.02-0.78-1.89-1.32-2.6c-0.54-0.71-1.09-1.09-1.66-1.15l-0.17,8.52c-0.17,3.81-0.26,6.76-0.26,8.86
					c0,1.99,0.03,3.3,0.09,3.92C43.31,73.63,44.27,72.53,45.41,71.1z"/>
				<path class="st4" d="M69.61,110.91c-2.22-3.12-3.78-6.96-4.69-11.51c-1.02-4.83-1.68-10-1.96-15.51
					c-0.28-5-0.43-10.43-0.43-16.28v-7.08c0.06-1.99,0.09-4.09,0.09-6.31c-0.46-0.45-0.68-1.02-0.68-1.71
					c0-0.68,0.26-1.29,0.77-1.83c0.51-0.54,1.08-0.81,1.7-0.81c2.05,0,3.07,2.02,3.07,6.05c0,2.61,0.14,7.56,0.43,14.83
					c0.28,7.27,0.43,12.22,0.43,14.83c0.28,0.74,0.55,2.22,0.81,4.43c0.26,2.22,0.38,4.03,0.38,5.46c0,1.25,0.2,2.8,0.6,4.65
					c0.4,1.85,0.97,3.71,1.7,5.58c0.74,1.99,1.71,3.62,2.9,4.9c1.19,1.28,2.44,1.92,3.75,1.92c0.8,0,1.46-0.26,2-0.77
					c0.54-0.51,0.9-1.25,1.07-2.22c0.34-1.59,0.51-3.15,0.51-4.69V88.24c0-2.1-0.2-4.77-0.6-8.01c-0.34-3.58-0.51-6.28-0.51-8.1
					v-0.6c0-0.91-0.03-1.73-0.09-2.47l-0.09-2.47c0-1.59-0.09-4.01-0.26-7.24c-0.23-2.9-0.34-5.34-0.34-7.33
					c0-0.62,0.33-1.16,0.98-1.62c0.65-0.45,1.38-0.68,2.17-0.68l2.13,1.96v1.45c0,0.68-0.12,1.51-0.34,2.47
					c-0.23,1.59-0.34,2.5-0.34,2.73c0,5.17,0.28,12.3,0.85,21.39c0.51,9.55,0.77,16.96,0.77,22.25c0,2.84-0.28,5.34-0.85,7.5
					c-0.34,1.31-0.81,2.36-1.41,3.15c-0.6,0.8-1.41,1.48-2.43,2.05c-0.97,0.57-2.22,0.85-3.75,0.85
					C74.44,115.51,71.66,113.98,69.61,110.91z"/>
				<path class="st4" d="M111.38,97.7c-3.98-13.69-7.42-26.28-10.31-37.76V87.9c0,2.39,0.23,6.45,0.68,12.19
					c0.4,6.25,0.6,10.28,0.6,12.1c0,0.51-0.31,0.95-0.94,1.32c-0.63,0.37-1.34,0.55-2.13,0.55c-1.19,0-1.79-0.45-1.79-1.36
					l0.17-2.47c0.11-1.82,0.17-3.01,0.17-3.58c0-3.01-0.17-7.78-0.51-14.32c-0.34-6.65-0.51-10.68-0.51-12.1V69.31
					c0-1.76,0.09-4.38,0.26-7.84c0.23-3.01,0.34-5.63,0.34-7.84v-0.51c0-2.84,0.63-4.26,1.87-4.26c0.74,0,1.68,1.25,2.81,3.75
					c1.87,4.09,4.26,11.42,7.16,21.99c1.65,6.14,3.58,14.04,5.8,23.7c-0.06-0.23,0.4,1.73,1.36,5.88l0.09,0.43
					c0-5.51,0.06-10.45,0.17-14.83l0.17-14.83V49.71c0.23-1.42,1.14-2.13,2.73-2.13c1.53,0,2.3,1.11,2.3,3.32v0.51
					c-0.34,0.68-0.51,1.51-0.51,2.47c0,3.47-0.09,8.69-0.26,15.68c-0.17,7.05-0.26,12.33-0.26,15.85v26c0,0.91-0.24,1.78-0.72,2.6
					c-0.48,0.82-1.06,1.24-1.75,1.24C117.23,115.26,114.9,109.4,111.38,97.7z"/>
				<path class="st4" d="M151.44,115.77c-0.28-0.06-0.6-0.09-0.94-0.09c-1.53-8.69-3.07-15.97-4.6-21.82
					c-1.53-5.85-3.47-11.36-5.8-16.54l-1.79,3.32c-0.51,0.97-0.8,1.82-0.85,2.56c-0.17,1.71-0.26,2.96-0.26,3.75
					c0,1.7,0.09,4.32,0.26,7.84c0.17,3.47,0.26,6.11,0.26,7.93v6.99c0,3.01-0.97,4.52-2.9,4.52c-1.65,0-2.47-1.59-2.47-4.77
					c0-2.5,0.17-6.34,0.51-11.51c0.4-4.77,0.6-8.58,0.6-11.42l0.09-7.33v-8.86c0-3.12-0.2-6.39-0.6-9.8c-0.4-3.52-0.6-6.19-0.6-8.01
					c0-0.74,0.23-1.36,0.68-1.87s1.02-0.77,1.71-0.77c2.1,0,3.15,2.3,3.15,6.9l-0.34,17.47l1.62-4.18c1.87-4.77,3.81-9.49,5.8-14.15
					c1.14-2.56,2.16-4.57,3.07-6.05c0.97-1.53,1.73-2.3,2.3-2.3c0.63,0,1.18,0.21,1.66,0.64c0.48,0.43,0.72,0.95,0.72,1.58
					c0,0.57-1.53,4.09-4.6,10.57c-3.01,6.19-4.77,10.31-5.28,12.36v1.53c0.85,2.16,3.12,9.08,6.82,20.75
					c3.69,11.68,5.54,17.86,5.54,18.54c0,0.68-0.27,1.25-0.81,1.7c-0.54,0.45-1.18,0.68-1.92,0.68
					C152.12,115.94,151.78,115.88,151.44,115.77z"/>
				<path class="st4" d="M162.34,114.74c-0.91-0.51-1.36-1.11-1.36-1.79s0.17-1.24,0.51-1.66c0.34-0.43,0.82-0.64,1.45-0.64
					c0.57,0,1.39,0.23,2.47,0.68c1.19,0.46,1.93,0.68,2.22,0.68c1.08,0,2.06-0.47,2.94-1.41c0.88-0.94,1.58-2.17,2.09-3.71
					c1.02-2.84,1.53-5.4,1.53-7.67c0-2.44-0.38-5.01-1.15-7.71c-0.77-2.7-1.8-5.33-3.11-7.88l-1.36-2.73
					c-1.42-2.84-2.52-5.08-3.28-6.73c-0.77-1.65-1.44-3.44-2-5.37c-0.85-2.73-1.28-5.37-1.28-7.93c0-2.05,0.35-3.98,1.07-5.8
					c0.71-1.82,1.77-3.35,3.2-4.6c1.42-1.36,3.18-2.05,5.28-2.05c1.02,0,2.02,0.3,2.98,0.9c0.96,0.6,1.65,1.35,2.05,2.26l-1.45,1.79
					c-1.48,0-2.59-0.28-3.32-0.85c-1.02,0.12-1.92,0.61-2.68,1.49c-0.77,0.88-1.35,1.89-1.75,3.03c-0.34,1.08-0.51,2.16-0.51,3.24
					c0,2.16,0.3,4.36,0.9,6.61c0.6,2.25,1.38,4.36,2.34,6.35l5.97,11.93c0.97,2.05,1.73,4.35,2.3,6.9c0.57,2.56,0.85,5.11,0.85,7.67
					c0,3.75-0.91,7.27-2.73,10.57c-0.97,1.7-2.22,3.05-3.75,4.05c-1.53,0.99-3.24,1.49-5.11,1.49
					C165.58,115.85,163.82,115.48,162.34,114.74z"/>
			</g>
		</g>
	</g>
</g>
</svg>
