<?xml version="1.0" encoding="utf-8"?>
<!-- Generator: Adobe Illustrator 24.0.1, SVG Export Plug-In . SVG Version: 6.00 Build 0)  -->
<svg version="1.1" xmlns="http://www.w3.org/2000/svg" xmlns:xlink="http://www.w3.org/1999/xlink" x="0px" y="0px"
	 viewBox="0 0 160 120" style="enable-background:new 0 0 160 120;" xml:space="preserve">
<style type="text/css">
	.st0{fill:#36EE00;}
	.st1{fill:#CB0000;}
	.st2{fill:#DADADA;}
	.st3{fill:#EDEDED;}
	.st4{fill:#FFFFFF;}
	.st5{fill:#C7FF00;}
	.st6{fill:#FFFFB3;}
	.st7{fill:#FF0000;}
	.st8{fill:#FF955F;}
	.st9{fill:#F6F6F6;stroke:#EDEDED;stroke-width:1.4;stroke-miterlimit:10;}
	.st10{fill:#F6F6F6;stroke:#F6F6F6;stroke-width:0.75;stroke-miterlimit:10;}
	.st11{fill:#B2B2B2;stroke:#B2B2B2;stroke-width:0.9871;stroke-miterlimit:10;}
	.st12{fill:none;stroke:#CB0000;stroke-width:3.5915;stroke-miterlimit:10;}
	.st13{fill:#B2B2B2;stroke:#B2B2B2;stroke-width:0.3848;stroke-miterlimit:10;}
	.st14{fill:#EDEDED;stroke:#EDEDED;stroke-width:0.0589;stroke-miterlimit:10;}
	.st15{fill:#FFFFFF;stroke:#FFFFFF;stroke-width:0.0589;stroke-miterlimit:10;}
	.st16{fill:none;stroke:#36EE00;stroke-width:3.848;stroke-miterlimit:10;}
	.st17{fill:none;stroke:#A2FF28;stroke-width:2.355;stroke-miterlimit:10;}
	.st18{fill:none;stroke:#D9FF51;stroke-width:1.1775;stroke-miterlimit:10;}
	.st19{fill:none;stroke:#FF0F08;stroke-width:2.355;stroke-miterlimit:10;}
	.st20{fill:none;stroke:#FF6C2D;stroke-width:1.1775;stroke-miterlimit:10;}
	.st21{fill:none;stroke:#B2B2B2;stroke-width:3.848;stroke-miterlimit:10;}
	.st22{fill:#B2B2B2;stroke:#B2B2B2;stroke-width:0.5131;stroke-miterlimit:10;}
	.st23{fill:none;stroke:#EDEDED;stroke-width:2.355;stroke-miterlimit:10;}
	.st24{fill:#EDEDED;stroke:#EDEDED;stroke-width:0.5887;stroke-miterlimit:10;}
	.st25{fill:#EDEDED;stroke:#EDEDED;stroke-width:0.1472;stroke-miterlimit:10;}
	.st26{fill:none;stroke:#FFFFFF;stroke-width:1.1775;stroke-miterlimit:10;}
	.st27{fill:#FFFFFF;stroke:#FFFFFF;stroke-width:0.1472;stroke-miterlimit:10;}
	.st28{fill:#DADADA;stroke:#DADADA;stroke-width:0.9744;stroke-miterlimit:10;}
	.st29{fill:#DADADA;stroke:#DADADA;stroke-width:0.9871;stroke-miterlimit:10;}
	.st30{fill:#DADADA;stroke:#DADADA;stroke-width:0.3848;stroke-miterlimit:10;}
	.st31{fill:none;stroke:#DADADA;stroke-width:3.848;stroke-miterlimit:10;}
	.st32{fill:#DADADA;stroke:#DADADA;stroke-width:0.5131;stroke-miterlimit:10;}
	.st33{fill:#DADADA;stroke:#DADADA;stroke-width:0.4958;stroke-miterlimit:10;}
	.st34{fill:#DADADA;stroke:#DADADA;stroke-width:0.521;stroke-miterlimit:10;}
	.st35{fill:#CB0000;stroke:#CB0000;stroke-width:1.8957;stroke-miterlimit:10;}
	.st36{fill:#DADADA;stroke:#DADADA;stroke-width:0.1657;stroke-miterlimit:10;}
	.st37{fill:none;stroke:#36EE00;stroke-width:2.0311;stroke-miterlimit:10;}
	.st38{fill:none;stroke:#D9FF51;stroke-width:0.9746;stroke-miterlimit:10;}
	.st39{fill:none;stroke:#FF6C2D;stroke-width:0.9746;stroke-miterlimit:10;}
	.st40{fill:none;stroke:#DADADA;stroke-width:2.0311;stroke-miterlimit:10;}
	.st41{fill:none;stroke:#FFFFFF;stroke-width:0.9746;stroke-miterlimit:10;}
	.st42{fill:none;stroke:#CB0000;stroke-width:3.8272;stroke-miterlimit:10;}
	.st43{fill:#DADADA;stroke:#DADADA;stroke-width:0.4101;stroke-miterlimit:10;}
	.st44{fill:#EDEDED;stroke:#EDEDED;stroke-width:0.0627;stroke-miterlimit:10;}
	.st45{fill:#FFFFFF;stroke:#FFFFFF;stroke-width:0.0627;stroke-miterlimit:10;}
	.st46{fill:none;stroke:#36EE00;stroke-width:4.1006;stroke-miterlimit:10;}
	.st47{fill:none;stroke:#A2FF28;stroke-width:2.5096;stroke-miterlimit:10;}
	.st48{fill:none;stroke:#D9FF51;stroke-width:1.2548;stroke-miterlimit:10;}
	.st49{fill:none;stroke:#FF0F08;stroke-width:2.5095;stroke-miterlimit:10;}
	.st50{fill:none;stroke:#FF6C2D;stroke-width:1.2548;stroke-miterlimit:10;}
	.st51{fill:none;stroke:#DADADA;stroke-width:4.1006;stroke-miterlimit:10;}
	.st52{fill:#DADADA;stroke:#DADADA;stroke-width:0.5467;stroke-miterlimit:10;}
	.st53{fill:none;stroke:#EDEDED;stroke-width:2.5096;stroke-miterlimit:10;}
	.st54{fill:#EDEDED;stroke:#EDEDED;stroke-width:0.6274;stroke-miterlimit:10;}
	.st55{fill:#EDEDED;stroke:#EDEDED;stroke-width:0.1568;stroke-miterlimit:10;}
	.st56{fill:none;stroke:#FFFFFF;stroke-width:1.2548;stroke-miterlimit:10;}
	.st57{fill:#FFFFFF;stroke:#FFFFFF;stroke-width:0.1568;stroke-miterlimit:10;}
</style>
<g id="Capa_1">
</g>
<g id="Capa_2">
	<polygon class="st42" points="129.79,24.53 128.68,30.99 122.46,29.09 121.23,34.34 127.64,35.44 125.78,41.7 130.99,42.92 
		132.1,36.49 138.33,38.36 139.56,33.11 133.14,32.04 135,25.75 	"/>
	<path class="st43" d="M77.24,74.61c0.01,0-0.18,0.22-0.15,0.22c0.07,0.01,0.55,0.83,0.6,0.84c1.15,0.19,2.1-0.14,3.17-0.12
		c0.05-0.5,0.09-1.37,0.08-1.81c-0.01-0.4-0.03-0.78-0.05-1.13c-0.82,0.51-1.43,0.79-1.84,1.02c-0.21,0.12-0.81,0.45-1.57,0.92
		C77.39,74.6,77.29,74.58,77.24,74.61z"/>
	<path class="st44" d="M77.85,74.87c0.01-0.13,0.02-0.27,0.02-0.43c0-0.2-0.02-0.38-0.05-0.54c0.83-0.35,1.66-0.7,2.49-1.05
		c0.01,0.31,0.02,0.64,0.02,0.97c0,0.5-0.02,0.99-0.05,1.44C79.47,75.14,78.66,75,77.85,74.87z"/>
	<path class="st45" d="M78.47,74.97c0.01-0.15,0.01-0.3,0.02-0.46c0-0.27,0-0.53-0.02-0.77c0.43-0.25,0.85-0.51,1.28-0.76
		c0,0.47-0.01,0.95-0.04,1.46c-0.01,0.24-0.03,0.47-0.05,0.7C79.26,75.08,78.87,75.02,78.47,74.97z"/>
	<g>
		<path class="st46" d="M95.72,41.8c2.21-4.02,5.37-7.45,9.2-9.97c5.01-3.29,10.15-6.59,15.44-9.9c6.28-3.92,12.46-7.66,18.55-11.23
			c1.64-0.96,3.76-0.82,5.15,0.49c0.01,0.01,0.02,0.02,0.03,0.03c2.6,2.47,3.84,3.93,6.98,8.92c3.75,5.95,4.77,7.46,5.74,11.25
			c0.01,0.05,0.03,0.11,0.04,0.16c0.42,1.82-0.38,3.69-1.94,4.71c-5.65,3.7-11.42,7.42-17.33,11.13
			c-5.62,3.53-11.2,6.96-16.71,10.28c-3.86,2.32-8.21,3.67-12.7,3.94c-0.68,0.04-0.37,0.03-1.05,0.06"/>
		<path class="st46" d="M77.31,61.15c-1.1,0.69-2.4,1.51-4.62,3.04c-0.51,0.35-4.63,2.96-6.24,4c-0.26,0.17-0.27,0.55-0.01,0.73
			c0.77,0.52,1.91,1.55,2.89,3.16c0.84,1.38,1.28,2.68,1.46,3.57c0.08,0.39,0.52,0.57,0.85,0.36c0.61-0.39,1.25-0.83,2.15-1.38
			c1.47-0.89,2.94-1.79,3.31-2c1.43-0.81,2.48-1.42,3.34-1.93c0.94-0.56,2.29-1.35,3.92-2.37"/>
	</g>
	<g>
		<path class="st47" d="M95.72,41.8c2.21-4.02,5.37-7.45,9.2-9.97c5.01-3.29,10.15-6.59,15.44-9.9c6.28-3.92,12.46-7.66,18.55-11.23
			c1.64-0.96,3.76-0.82,5.15,0.49c0.01,0.01,0.02,0.02,0.03,0.03c2.6,2.47,3.84,3.93,6.98,8.92c3.75,5.95,4.77,7.46,5.74,11.25
			c0.01,0.05,0.03,0.11,0.04,0.16c0.42,1.82-0.38,3.69-1.94,4.71c-5.65,3.7-11.42,7.42-17.33,11.13
			c-5.62,3.53-11.2,6.96-16.71,10.28c-3.86,2.32-8.21,3.67-12.7,3.94c-0.68,0.04-1.35,0.08-2.03,0.12"/>
		<path class="st47" d="M77.31,61.15c-1.1,0.69-2.4,1.51-4.62,3.04c-0.51,0.35-4.63,2.96-6.24,4c-0.26,0.17-0.27,0.55-0.01,0.73
			c0.77,0.52,1.91,1.55,2.89,3.16c0.84,1.38,1.28,2.68,1.46,3.57c0.08,0.39,0.52,0.57,0.85,0.36c0.61-0.39,1.25-0.83,2.15-1.38
			c1.47-0.89,2.94-1.79,3.31-2c1.43-0.81,2.48-1.42,3.34-1.93c0.94-0.56,2.29-1.35,3.92-2.37"/>
	</g>
	<g>
		<path class="st48" d="M95.72,41.8c2.21-4.02,5.37-7.45,9.2-9.97c5.01-3.29,10.15-6.59,15.44-9.9c6.28-3.92,12.46-7.66,18.55-11.23
			c1.64-0.96,3.76-0.82,5.15,0.49c0.01,0.01,0.02,0.02,0.03,0.03c2.6,2.47,3.84,3.93,6.98,8.92c3.75,5.95,4.77,7.46,5.74,11.25
			c0.01,0.05,0.03,0.11,0.04,0.16c0.42,1.82-0.38,3.69-1.94,4.71c-5.65,3.7-11.42,7.42-17.33,11.13
			c-5.62,3.53-11.2,6.96-16.71,10.28c-3.86,2.32-8.21,3.67-12.7,3.94c-0.68,0.04-1.35,0.08-2.03,0.12"/>
		<path class="st48" d="M77.31,61.15c-1.1,0.69-2.4,1.51-4.62,3.04c-0.51,0.35-4.63,2.96-6.24,4c-0.26,0.17-0.27,0.55-0.01,0.73
			c0.77,0.52,1.91,1.55,2.89,3.16c0.84,1.38,1.28,2.68,1.46,3.57c0.08,0.39,0.52,0.57,0.85,0.36c0.61-0.39,1.25-0.83,2.15-1.38
			c1.47-0.89,2.94-1.79,3.31-2c1.43-0.81,2.48-1.42,3.34-1.93c0.94-0.56,2.29-1.35,3.92-2.37"/>
	</g>
	<polygon class="st49" points="129.79,24.53 128.68,30.99 122.46,29.09 121.23,34.34 127.64,35.44 125.78,41.7 130.99,42.92 
		132.1,36.49 138.33,38.36 139.56,33.11 133.14,32.04 135,25.75 	"/>
	<polygon class="st50" points="129.79,24.53 128.68,30.99 122.46,29.09 121.23,34.34 127.64,35.44 125.78,41.7 130.99,42.92 
		132.1,36.49 138.33,38.36 139.56,33.11 133.14,32.04 135,25.75 	"/>
	<path class="st51" d="M79.04,75.27c-1.97,19.42-17.82,34.39-37.65,34.51C20.37,109.92,3.22,92.94,3.08,71.86
		c-0.13-21.08,16.8-38.27,37.83-38.41c15.22-0.1,28.4,8.77,34.58,21.67"/>
	<path class="st51" d="M30.98,64.88c2.88-2.59,6.32-5.36,10.32-8.11c3.93-2.69,7.68-4.85,11.07-6.58"/>
	<path class="st51" d="M34.77,62.7c0.57,0.21,5.71,6.65,12.44,1.65c6.15-4.57,2.15-10.63,2.17-11.46"/>
	<path class="st51" d="M21.7,63.13c0.17-1.75,0.89-6.97,5.09-11.6c4.88-5.39,11.09-6.26,12.66-6.43"/>
	<line class="st51" x1="61.61" y1="45.25" x2="66.14" y2="43.62"/>
	<path class="st51" d="M55.45,68.41c0.66-0.03,6.93-0.19,10.9,4.84c3.21,4.06,3.61,9.86,1,14.66"/>
	<path class="st51" d="M110.36,83.08c-2.23-2.42-4.81-4.98-7.79-7.56c-2-1.73-2.82-2.69-4.7-4.08c-0.91-0.67-1.95-1.2-3.25-1.08
		c-0.19,0.02-0.48,0.11-0.66,0.18c-1.28,0.53-2.4,0.94-3.45,1.28c-1.04,0.33-1.99,0-2.62-0.22c-1.75-0.61-2.67-1.95-3.29-2.85
		c-0.8-1.16-1.53-2.23-1.44-3.75c0.01-0.17,0.19-2.62,1.65-3.24c2.04-0.87,3.85,3.02,7.73,2.98c1.04-0.01,2.26-0.53,4.71-1.58
		c2.62-1.12,3.23-1.35,4.42-1.66c2.9-0.76,2.87-0.84,6.56,0.59c1.41,0.55,3.67,2.18,3.9,2.35c7.96,5.85,15.09,10.09,23.05,15.94
		c0.78,0.63,3.71,3.18,4.44,7.61c0.6,3.62-0.6,6.45-1.09,7.46"/>
	<path class="st51" d="M75.46,60.07c-0.04-0.03-0.07-0.06-0.09-0.1c-0.22-0.47-0.77-1.84-0.37-3.54c0.43-1.83,1.69-2.84,2.16-3.18
		c0.07-0.05,0.1-0.12,0.1-0.21c-0.05-0.57-0.09-2.41,1.26-3.97c1.5-1.73,3.58-1.83,4.26-1.81c0.12,0,0.21-0.08,0.23-0.19
		c0.14-0.73,0.63-2.64,2.42-4.02c1.48-1.15,3.05-1.31,3.7-1.34c0.06,0,0.11-0.02,0.15-0.06c0.41-0.4,1.49-1.32,3.16-1.57
		c1.97-0.29,3.46,0.57,3.9,0.85c0.03,0.02,0.06,0.05,0.08,0.08c0.85,1.35,0.87,3.03,0.05,4.17c-0.98,1.38-3.08,1.87-4.86,0.96
		c-0.18-0.09-0.4,0.07-0.34,0.27c0.21,0.75,0.4,2.06-0.36,3.2c-0.93,1.39-2.91,1.99-4.75,1.31c-0.18-0.07-0.36,0.11-0.3,0.29
		c0.21,0.65,0.42,1.79-0.15,2.84c-0.76,1.4-2.47,2.05-4.37,1.53c-0.2-0.05-0.39,0.15-0.29,0.33c0.65,1.17,0.34,2.5-0.21,3.43
		C79.95,60.86,77.46,61.44,75.46,60.07z"/>
	<path class="st52" d="M88.3,43.25c0.27,0.56,0.47,1.05,0.61,1.44c0.27,0.75,0.43,1.35,0.54,1.8c0.1,0.37,0.17,0.69,0.22,0.93
		c1.09-0.85,2.19-1.69,3.28-2.54c-0.2-0.11-0.47-0.27-0.77-0.49c-0.47-0.35-0.78-0.67-0.97-0.87c-0.82-0.88-1.45-1.95-1.69-2.36
		C89.12,41.86,88.71,42.56,88.3,43.25z"/>
	<path class="st52" d="M82.8,48.87c0.17,0.32,0.41,0.78,0.69,1.36c0.21,0.43,0.33,0.67,0.45,0.98c0.15,0.36,0.34,0.89,0.5,1.56
		c1.14-1.09,2.28-2.18,3.42-3.28c-0.43-0.05-1.41-0.23-2.37-0.99c-1.1-0.88-1.48-1.99-1.59-2.39C83.54,47.02,83.17,47.94,82.8,48.87
		z"/>
	<path class="st52" d="M77.69,54.74c0.27,0.19,0.58,0.44,0.9,0.79c0.18,0.19,0.43,0.5,0.68,0.92c0.18,0.32,0.31,0.6,0.4,0.84
		c0.85-1.12,1.69-2.24,2.54-3.36c-0.02,0-0.87-0.21-0.88-0.21c-1-0.23-1.5-0.36-1.87-0.54c-0.22-0.11-0.53-0.29-0.87-0.61
		C78.29,53.29,77.99,54.02,77.69,54.74z"/>
	<g>
		<path class="st53" d="M79.08,74.93c-1.66,19.42-17.86,34.73-37.69,34.85C20.37,109.92,3.22,92.94,3.08,71.86
			c-0.13-21.08,16.8-38.27,37.83-38.41c15.22-0.1,28.4,8.77,34.58,21.67"/>
		<path class="st53" d="M30.98,64.88c2.88-2.59,6.32-5.36,10.32-8.11c3.93-2.69,7.68-4.85,11.07-6.58"/>
		<path class="st53" d="M34.77,62.7c0.57,0.21,5.71,6.65,12.44,1.65c6.15-4.57,2.17-10.98,2.06-11.61"/>
		<path class="st53" d="M21.7,63.13c0.17-1.75,0.89-6.97,5.09-11.6c4.88-5.39,11.09-6.26,12.66-6.43"/>
		<line class="st53" x1="61.61" y1="45.25" x2="66.14" y2="43.62"/>
		<path class="st53" d="M55.45,68.41c0.66-0.03,6.93-0.19,10.9,4.84c3.21,4.06,3.61,9.86,1,14.66"/>
		<path class="st53" d="M110.36,83.08c-2.23-2.42-4.81-4.98-7.79-7.56c-2-1.73-2.82-2.69-4.7-4.08c-0.91-0.67-1.95-1.2-3.25-1.08
			c-0.19,0.02-0.48,0.11-0.66,0.18c-1.28,0.53-2.4,0.94-3.45,1.28c-1.04,0.33-1.99,0-2.62-0.22c-1.75-0.61-2.67-1.95-3.29-2.85
			c-0.8-1.16-1.53-2.23-1.44-3.75c0.01-0.17,0.19-2.62,1.65-3.24c2.04-0.87,3.85,3.02,7.73,2.98c1.04-0.01,2.26-0.53,4.71-1.58
			c2.62-1.12,3.25-1.29,4.42-1.66c2.84-0.92,3.48-0.7,6.56,0.59c1.3,0.54,3.67,2.18,3.9,2.35c7.96,5.85,15.09,10.09,23.05,15.94
			c0.78,0.63,3.71,3.18,4.44,7.61c0.6,3.62-0.6,6.45-1.09,7.46"/>
		<path class="st53" d="M75.4,60.02c-0.2-0.41-0.82-1.82-0.4-3.6c0.47-2,1.93-3.03,2.27-3.25c-0.04-0.34-0.24-2.38,1.25-4.1
			c1.71-1.98,4.2-1.82,4.46-1.8c0.07-0.49,0.46-2.68,2.46-4.22c1.55-1.2,3.19-1.33,3.79-1.34c0.35-0.36,1.46-1.37,3.22-1.63
			c2.05-0.3,3.57,0.63,3.95,0.88c0.88,1.36,0.91,3.06,0.08,4.22c-1.06,1.49-3.88,1.97-5.31,0.72c-0.03-0.02-0.06,0-0.05,0.03
			c0.2,0.49,0.77,2.22-0.2,3.68c-1.01,1.52-3.28,2.09-5.25,1.09c0.1,0.22,0.84,1.88,0.04,3.35c-0.85,1.57-2.78,2.02-5.07,1.29
			c1.15,1.29,0.84,2.92,0.2,4C79.94,60.87,77.41,61.45,75.4,60.02z"/>
		<path class="st54" d="M88.68,41.59c0.19,0.7,0.19,0.93,0.37,1.39c0,0,0.28,0.78,0.66,1.85c0.38,1.14,0.7,2.06,0.94,1.99
			c0.11-0.03,0.03-0.55,0.1-0.62c0.15-0.12,0.29-0.23,0.44-0.35c0.02,0.04,0.18,0.32,0.5,0.37c0.24,0.04,0.42-0.07,0.51-0.13
			c0.12-0.08,0.47-0.36,0.33-0.44c-0.15-0.08-0.05-0.09-0.1-0.11c-0.26-0.11-0.65-0.38-1.27-0.89c-0.21-0.17-0.63-0.5-0.9-1.02
			c-0.14-0.27-0.21-0.52-0.22-0.57c-0.07-0.25-0.09-0.45-0.1-0.64c-0.02-0.22-0.03-0.51,0.01-0.86c-0.68-0.05-0.91-0.12-0.95-0.19
			C88.99,41.35,88.97,41.32,88.68,41.59z"/>
		<path class="st54" d="M81.14,47.32c0.16,0.39,0.63,0.5,1.15,0.62c0.62,0.15,1.16,0.54,1.51,1.08c0.22,0.34,0.47,0.78,0.65,1.24
			c0.51,1.09,0.69,1.52,0.93,1.43c0.11-0.04,0.2-0.11,0.26-0.19c0.22-0.24,0.44-0.48,0.66-0.72c0.07-0.04,0.16-0.09,0.18-0.18
			c0,0,0.01-0.04,0.01-0.07c-0.01-0.27-0.64-0.73-0.64-0.73c-0.62-0.45-0.77-0.54-0.95-0.74c-0.16-0.17-0.32-0.36-0.32-0.36
			c-0.05-0.07-0.13-0.15-0.21-0.28c0-0.01-0.01-0.01-0.01-0.02c-0.33-0.44-0.52-0.98-0.51-1.53c0.01-0.43,0-0.87-0.06-0.94
			C83.63,45.77,81.58,47.56,81.14,47.32z"/>
		<path class="st55" d="M76.91,53.73c0.15,0.07,0.36,0.17,0.61,0.31c0.5,0.28,0.84,0.57,1.08,0.76c0.19,0.16,0.44,0.38,0.71,0.65
			c0.4-0.43,0.8-0.86,1.2-1.29c-0.4-0.14-0.73-0.28-0.99-0.41c-0.36-0.18-0.62-0.3-0.91-0.53c-0.32-0.26-0.55-0.53-0.71-0.78
			C77.57,52.87,77.24,53.3,76.91,53.73z"/>
	</g>
	<g>
		<path class="st56" d="M79.08,74.93c-1.66,19.42-17.86,34.73-37.69,34.85C20.37,109.92,3.22,92.94,3.08,71.86
			c-0.13-21.08,16.8-38.27,37.83-38.41c15.22-0.1,28.4,8.77,34.58,21.67"/>
		<path class="st56" d="M30.98,64.88c2.88-2.59,6.32-5.36,10.32-8.11c3.93-2.69,7.68-4.85,11.07-6.58"/>
		<path class="st56" d="M34.54,62.36c0.59,0.56,5.93,6.99,12.66,1.99c6.15-4.57,2.24-10.91,1.83-11.86"/>
		<path class="st56" d="M21.7,63.13c0.17-1.75,0.89-6.97,5.09-11.6c4.88-5.39,11.09-6.26,12.66-6.43"/>
		<line class="st56" x1="61.61" y1="45.25" x2="66.5" y2="43.5"/>
		<path class="st56" d="M55.45,68.41c0.66-0.03,6.93-0.19,10.9,4.84c3.21,4.06,3.61,9.86,1,14.66"/>
		<path class="st56" d="M110.36,83.08c-2.23-2.42-4.81-4.98-7.79-7.56c-2-1.73-2.82-2.69-4.7-4.08c-0.91-0.67-1.95-1.2-3.25-1.08
			c-0.19,0.02-0.48,0.11-0.66,0.18c-1.28,0.53-2.4,0.94-3.45,1.28c-1.04,0.33-1.99,0-2.62-0.22c-1.75-0.61-2.67-1.95-3.29-2.85
			c-0.8-1.16-1.53-2.23-1.44-3.75c0.01-0.17,0.19-2.62,1.65-3.24c2.04-0.87,3.85,3.02,7.73,2.98c1.04-0.01,2.26-0.53,4.71-1.58
			c2.62-1.12,3.25-1.29,4.42-1.66c2.84-0.92,2.89-0.72,6.56,0.59c1.43,0.51,3.67,2.18,3.9,2.35c7.96,5.85,15.09,10.09,23.05,15.94
			c0.78,0.63,3.71,3.18,4.44,7.61c0.6,3.62-0.6,6.45-1.09,7.46"/>
		<path class="st56" d="M75.4,60.02c-0.2-0.41-0.82-1.82-0.4-3.6c0.47-2,1.93-3.03,2.27-3.25c-0.04-0.34-0.24-2.38,1.25-4.1
			c1.71-1.98,4.2-1.82,4.46-1.8c0.07-0.49,0.46-2.68,2.46-4.22c1.55-1.2,3.19-1.33,3.79-1.34c0.35-0.36,1.46-1.37,3.22-1.63
			c2.05-0.3,3.57,0.63,3.95,0.88c0.88,1.36,0.91,3.06,0.08,4.22c-1.09,1.53-3.67,1.9-5.41,0.56c0,0.19,0.96,2.2-0.15,3.87
			c-1.01,1.52-3.28,2.09-5.25,1.09c0.1,0.22,0.84,1.88,0.04,3.35c-0.85,1.57-2.89,2.19-5.07,1.29c1.15,1.29,0.84,2.92,0.2,4
			C79.94,60.87,77.41,61.45,75.4,60.02z"/>
		<path class="st57" d="M76.92,53.54c0.2-0.01,0.51,0,0.86,0.1c0.1,0.03,0.31,0.1,0.63,0.3c0.28,0.17,0.69,0.46,1.12,0.96
			c0.1-0.16,0.19-0.33,0.29-0.49c-0.63-0.23-1.08-0.52-1.36-0.73c-0.46-0.35-0.58-0.57-0.62-0.66c-0.21-0.43-0.13-0.87-0.09-1.06
			c-0.17,0.22-0.34,0.5-0.51,0.82C77.1,53.05,77,53.31,76.92,53.54z"/>
		<path class="st57" d="M82.36,47.62c0.33,0.15,0.73,0.37,1.13,0.71c0.84,0.7,1.24,1.53,1.42,2c0.28-0.04,0.56-0.08,0.84-0.12
			c-0.22-0.12-0.51-0.31-0.82-0.59c-0.27-0.24-0.7-0.64-0.99-1.28c-0.33-0.74-0.3-1.44-0.25-1.81
			C83.26,46.91,82.81,47.26,82.36,47.62z"/>
		<path class="st57" d="M88.32,42.13c0.53,0.23,0.89,0.62,1.07,1.07c0.14,0.36,0.32,0.64,0.45,0.98c0.12,0.29,0.61,1.47,0.79,1.99
			c0.3,0.02,0.19-0.95,0.49-0.92c-0.22-0.19-0.4-0.41-0.7-0.83c-0.25-0.35-0.54-0.75-0.65-1.27c-0.05-0.24-0.21-0.73-0.03-1.33
			C89.42,41.94,88.64,42.01,88.32,42.13z"/>
	</g>
</g>
</svg>
